<?xml version="1.0" encoding="UTF-8" standalone="no"?>
<svg
   aria-hidden="true"
   role="img"
   class="iconify iconify--logos"
   width="31.88"
   height="32"
   preserveAspectRatio="xMidYMid meet"
   viewBox="0 0 256 257"
   version="1.1"
   id="svg1535"
   sodipodi:docname="icon.svg"
   inkscape:version="1.2 (dc2aedaf03, 2022-05-15)"
   xmlns:inkscape="http://www.inkscape.org/namespaces/inkscape"
   xmlns:sodipodi="http://sodipodi.sourceforge.net/DTD/sodipodi-0.dtd"
   xmlns="http://www.w3.org/2000/svg"
   xmlns:svg="http://www.w3.org/2000/svg">
  <sodipodi:namedview
     id="namedview1537"
     pagecolor="#ffffff"
     bordercolor="#666666"
     borderopacity="1.0"
     inkscape:showpageshadow="2"
     inkscape:pageopacity="0.0"
     inkscape:pagecheckerboard="0"
     inkscape:deskcolor="#d1d1d1"
     showgrid="false"
     inkscape:zoom="20.85965"
     inkscape:cx="16.922623"
     inkscape:cy="14.765348"
     inkscape:window-width="1920"
     inkscape:window-height="1009"
     inkscape:window-x="-8"
     inkscape:window-y="-8"
     inkscape:window-maximized="1"
     inkscape:current-layer="svg1535" />
  <defs
     id="defs1529">
    <linearGradient
       id="IconifyId1813088fe1fbc01fb466"
       x1="-.828%"
       x2="57.636%"
       y1="7.652%"
       y2="78.411%">
      <stop
         offset="0%"
         stop-color="#41D1FF"
         id="stop1517" />
      <stop
         offset="100%"
         stop-color="#BD34FE"
         id="stop1519" />
    </linearGradient>
    <linearGradient
       id="IconifyId1813088fe1fbc01fb467"
       x1="43.376%"
       x2="50.316%"
       y1="2.242%"
       y2="89.03%">
      <stop
         offset="0%"
         stop-color="#FFEA83"
         id="stop1522" />
      <stop
         offset="8.333%"
         stop-color="#FFDD35"
         id="stop1524" />
      <stop
         offset="100%"
         stop-color="#FFA800"
         id="stop1526" />
    </linearGradient>
  </defs>
  <path
     id="path2967"
     style="font-weight:300;font-size:57.1068px;line-height:1.25;font-family:'Segoe UI';-inkscape-font-specification:'Segoe UI Light';letter-spacing:-3.56696px;word-spacing:0px;fill:#000000;fill-opacity:1;stroke-width:3.00888"
     d="m 189.80187,155.57222 c -0.77817,0 -1.48928,0.27503 -2.13328,0.82445 -0.61715,0.52323 -0.92525,1.21607 -0.92525,2.07944 0,0.88953 0.3081,1.62262 0.92525,2.1982 0.61716,0.57556 1.32828,0.8629 2.13328,0.8629 0.85865,0 1.59728,-0.30048 2.21443,-0.9022 0.61717,-0.60174 0.92525,-1.3217 0.92525,-2.15889 0,-0.8895 -0.32224,-1.5955 -0.96625,-2.11875 -0.61716,-0.52326 -1.34162,-0.78515 -2.17343,-0.78515 z m -20.84923,4.43486 c -0.59032,0.20939 -1.20734,0.4055 -1.85135,0.58865 -0.64398,0.20939 -1.26102,0.41862 -1.85135,0.62793 v 10.43827 h -7.40625 v 3.29689 h 7.40625 v 26.9996 c 0,7.11611 3.04516,10.67406 9.13628,10.67406 1.69049,0 3.50243,-0.44495 5.43443,-1.33445 v -3.37463 c -1.77099,0.96799 -3.42138,1.45149 -4.95088,1.45149 -2.14663,0 -3.67631,-0.61485 -4.58863,-1.84449 -0.8855,-1.25578 -1.3285,-3.27038 -1.3285,-6.04357 v -26.52801 h 10.86801 v -3.29689 H 168.95264 Z M 36.732987,170.68116 c -6.064271,0 -11.028826,2.04085 -14.89279,6.12216 -3.863964,4.05518 -5.795819,9.27385 -5.795819,15.65743 0,6.06963 1.717012,10.98874 5.151648,14.75612 3.434635,3.74117 7.956188,5.61125 13.564297,5.61125 4.239624,0 7.88935,-0.91532 10.948322,-2.74667 v -3.76763 c -3.058972,2.14531 -6.654561,3.21828 -10.786854,3.21828 -4.507955,0 -8.144359,-1.58276 -10.90817,-4.7484 -2.736968,-3.16562 -4.105081,-7.35159 -4.105081,-12.5579 0,-5.38941 1.502171,-9.77159 4.507477,-13.14652 3.005305,-3.4011 6.923153,-5.10209 11.753105,-5.10209 3.515134,0 6.7485,0.88991 9.700136,2.66895 v -4.08119 c -2.951636,-1.25575 -5.996801,-1.88379 -9.136271,-1.88379 z m 59.931687,0 c -5.47393,0 -9.928044,2.0146 -13.362669,6.04359 -3.407796,4.00281 -5.112353,8.93417 -5.112353,14.79455 0,6.77601 1.637089,12.02181 4.910722,15.73687 3.273651,3.71501 7.567033,5.57195 12.87998,5.57195 5.259296,0 10.022316,-1.47765 14.288776,-4.43397 v -3.84625 c -4.40062,3.32263 -8.90886,4.9842 -13.52414,4.9842 -4.561637,0 -8.157226,-1.5565 -10.786854,-4.6698 -2.602798,-3.11329 -3.904312,-7.43064 -3.904312,-12.95087 h 30.509196 v -1.60871 c 0,-6.06968 -1.36811,-10.85736 -4.10508,-14.36311 -2.73697,-3.50573 -6.66813,-5.25845 -11.793266,-5.25845 z m 41.134586,0 c -2.30764,0 -4.77573,0.41868 -7.40537,1.25587 -2.60282,0.83721 -4.66872,1.8445 -6.19822,3.02179 v 4.35541 c 4.29329,-3.55807 8.70656,-5.33704 13.24135,-5.33704 6.65461,0 9.98208,4.31736 9.98208,12.95088 l -12.67836,1.84452 c -9.52574,1.46509 -14.28877,5.70276 -14.28877,12.71424 0,3.27028 1.1408,5.97857 3.42161,8.12388 2.2808,2.14528 5.38012,3.21741 9.29775,3.21741 3.05895,0 5.83601,-0.8111 8.33148,-2.43315 2.52232,-1.6482 4.44086,-3.84586 5.75568,-6.5929 h 0.16053 v 8.04531 h 3.70354 v -26.13589 c 0,-4.89235 -1.16745,-8.62107 -3.50192,-11.18495 -2.30766,-2.56392 -5.58184,-3.84538 -9.82145,-3.84538 z m 84.08208,0 c -5.98379,0 -10.81427,1.88322 -14.4904,5.65058 -3.64931,3.76737 -5.47374,8.9869 -5.47374,15.65829 0,6.17427 1.74452,11.1976 5.23281,15.06963 3.51514,3.84586 8.27818,5.76846 14.28879,5.76846 6.03744,0 10.7863,-1.93574 14.24776,-5.80777 3.4883,-3.87202 5.23282,-8.93478 5.23282,-15.18753 0,-6.61904 -1.70372,-11.79917 -5.1115,-15.54036 -3.40781,-3.74122 -8.05009,-5.6113 -13.92654,-5.6113 z m -150.936458,0.19638 c -2.683311,0 -5.044841,0.84963 -7.084155,2.55019 -2.039314,1.70055 -3.528168,4.08128 -4.467324,7.14225 h -0.161485 v -8.90817 h -3.622387 v 40.18543 h 3.622387 v -18.8757 c 0,-6.01736 1.100843,-10.6614 3.301155,-13.93168 2.200312,-3.27028 4.92322,-4.9056 8.170026,-4.9056 1.663657,0 3.113401,0.43183 4.347712,1.29518 v -3.84624 c -1.207496,-0.47089 -2.576462,-0.70566 -4.105943,-0.70566 z m 117.045788,0.78427 v 40.18543 h 3.70354 v -40.18543 z m -91.487468,2.31526 c 3.729788,0 6.655078,1.28231 8.774898,3.84621 2.11981,2.56393 3.25976,6.16128 3.42076,10.79201 H 82.215294 c 0.590324,-4.70924 2.146636,-8.31973 4.668936,-10.83129 2.549151,-2.53776 5.755015,-3.80693 9.618972,-3.80693 z m 125.216668,0 c 4.88362,0 8.65409,1.53108 11.31056,4.59204 2.6833,3.06098 4.02477,7.45632 4.02477,13.18583 0,5.57257 -1.34147,9.92845 -4.02477,13.06794 -2.6833,3.13947 -6.50706,4.7091 -11.47118,4.7091 -4.88363,0 -8.73401,-1.59591 -11.55148,-4.78769 -2.81749,-3.1918 -4.2264,-7.41717 -4.2264,-12.6758 0,-5.67722 1.43556,-10.11193 4.30671,-13.30373 2.89797,-3.1918 6.77501,-4.78769 11.63179,-4.78769 z m -74.30077,16.2469 v 3.92483 c 0,4.52609 -1.31484,8.22768 -3.94446,11.10553 -2.62967,2.8517 -5.92963,4.27765 -9.90093,4.27765 -2.89795,0 -5.1654,-0.77166 -6.80221,-2.31523 -1.60999,-1.54357 -2.41522,-3.50564 -2.41522,-5.88638 0,-3.03484 0.87183,-5.21935 2.61599,-6.55364 1.74415,-1.36041 4.77686,-2.3423 9.09696,-2.94403 z"
     sodipodi:nodetypes="scssssscscccccccssccscscccccscscsccscscsccsscsssccscccsssscccsccssscccccscsssscscsssscccccccsssccscscccsscccsscssssscscscscscccs" />
  <path
     id="path9234"
     style="font-weight:300;font-size:57.1068px;line-height:1.25;font-family:'Segoe UI';-inkscape-font-specification:'Segoe UI Light';letter-spacing:-3.56696px;word-spacing:0px;fill:#000000;fill-opacity:1;stroke-width:4.058"
     d="M 16.044378,38.137037 V 150.36285 h 7.945676 v -50.00961 h 14.287477 c 4.762525,0 8.723315,1.1745 11.880496,3.52232 3.15718,2.29563 6.314027,6.8343 9.471215,13.61688 l 15.331377,32.87041 h 8.989589 L 66.853631,114.5969 C 62.519195,105.57087 58.076737,100.1707 53.528258,98.396765 v -0.31223 c 8.561846,-1.56526 15.224957,-5.06141 19.987482,-10.48747 4.762525,-5.42611 7.143736,-12.18288 7.143736,-20.269804 0,-8.765178 -2.917168,-15.808766 -8.749923,-21.130484 -5.779247,-5.373882 -13.751654,-8.05974 -23.918846,-8.05974 z m 80.996144,0 V 150.36285 h 56.427458 v -7.04351 H 104.98621 V 97.301015 h 42.54211 v -7.04238 H 104.98621 V 45.257754 h 45.83283 v -7.120717 z m -73.050468,7.120717 h 21.511868 c 8.668869,0 15.330828,2.034872 19.98633,6.104409 4.655505,4.01739 6.983583,9.600788 6.983583,16.748636 0,7.825996 -2.5949,13.981906 -7.785525,18.468836 -5.137104,4.48696 -12.094184,6.73011 -20.870081,6.73011 H 23.990054 Z"
     sodipodi:nodetypes="ccccscccccccsscscccccccccccccccscscscc" />
</svg>
