<?xml version="1.0" encoding="UTF-8" standalone="no"?>
<!-- Created with Inkscape (http://www.inkscape.org/) -->

<svg
   width="210mm"
   height="75mm"
   viewBox="0 0 210 75"
   version="1.1"
   id="svg5"
   xml:space="preserve"
   inkscape:version="1.2 (dc2aedaf03, 2022-05-15)"
   sodipodi:docname="Logo.svg"
   xmlns:inkscape="http://www.inkscape.org/namespaces/inkscape"
   xmlns:sodipodi="http://sodipodi.sourceforge.net/DTD/sodipodi-0.dtd"
   xmlns="http://www.w3.org/2000/svg"
   xmlns:svg="http://www.w3.org/2000/svg"><sodipodi:namedview
     id="namedview7"
     pagecolor="#ffffff"
     bordercolor="#666666"
     borderopacity="1.0"
     inkscape:showpageshadow="2"
     inkscape:pageopacity="0.0"
     inkscape:pagecheckerboard="0"
     inkscape:deskcolor="#d1d1d1"
     inkscape:document-units="mm"
     showgrid="false"
     inkscape:zoom="0.5946522"
     inkscape:cx="828.21521"
     inkscape:cy="-299.33464"
     inkscape:window-width="2560"
     inkscape:window-height="1334"
     inkscape:window-x="-11"
     inkscape:window-y="-11"
     inkscape:window-maximized="1"
     inkscape:current-layer="layer1" /><defs
     id="defs2" /><g
     inkscape:label="Ebene 1"
     inkscape:groupmode="layer"
     id="layer1"
     transform="translate(0,-222)"><path
       style="fill:#000000;stroke-width:0.299839"
       d="m 5,266.35257 v -25.64734 l 7.762655,0.006 c 4.269461,0.003 8.712261,0.14113 9.872891,0.3064 7.597338,1.08184 12.464823,7.66877 11.274626,15.25739 -0.421923,2.69017 -0.922639,4.08924 -2.03688,5.69135 -1.262687,1.81553 -2.658938,3.09956 -4.565081,4.19814 -1.482387,0.85435 -2.437892,1.22395 -4.767508,1.84417 -0.666316,0.17738 -0.645871,0.21905 0.453561,0.92429 1.660268,1.06497 3.25542,3.32837 5.222413,7.41022 3.083103,6.39797 4.819318,10.06046 4.819318,10.16621 0,0.0569 0.542632,1.20209 1.205848,2.54469 0.663219,1.3426 1.205851,2.55467 1.205851,2.69349 0,0.13884 -0.949608,0.25241 -2.110237,0.25241 -1.169712,0 -2.110236,-0.12958 -2.110236,-0.29075 0,-0.15992 -0.421199,-1.19998 -0.935998,-2.31124 -0.514798,-1.11127 -1.885115,-4.10061 -3.045148,-6.64297 -4.364898,-9.56623 -5.547013,-11.38999 -8.221933,-12.68465 -1.520718,-0.73602 -1.957419,-0.79815 -6.023093,-0.85677 l -4.383501,-0.0632 V 280.57519 292 H 6.8087737 5 Z m 17.086487,-1.04645 c 2.271497,-0.65325 3.181756,-1.13427 4.679544,-2.47291 2.344621,-2.09547 3.556804,-4.96444 3.556804,-8.41817 0,-4.60122 -2.448233,-8.03138 -6.84977,-9.59707 -1.497866,-0.53281 -2.660507,-0.63997 -8.298711,-0.76487 l -6.556806,-0.14526 -5.7e-6,10.99869 -3.4e-6,10.9987 5.8609971,-0.0484 c 4.488187,-0.0371 6.270182,-0.16604 7.607951,-0.55076 z m 19.362671,26.61922 c -0.01528,-0.041 -0.0492,-11.58231 -0.07537,-25.64733 l -0.04758,-25.57279 h 12.133857 l 12.133858,1e-5 v 1.64022 1.64025 l -1.733403,0.006 c -0.95338,0.003 -5.565753,0.007 -10.249724,0.008 l -8.51631,0.003 v 10.2804 10.28039 h 9.496062 9.496072 v 1.64023 1.64025 h -9.49607 -9.496063 v 10.43785 10.43787 H 55.947129 66.79978 v 1.64025 1.64023 H 54.138355 c -6.963778,0 -12.673917,-0.0336 -12.689197,-0.0746 z m 36.28456,-0.24718 c -6.199666,-1.17452 -9.965528,-7.40994 -8.852667,-14.658 0.216038,-1.40708 0.748541,-3.23621 1.239809,-4.25872 0.8592,-1.78833 3.533985,-4.75823 4.581685,-5.08719 0.300808,-0.0945 0.456174,-0.317 0.345245,-0.49456 -0.122804,-0.19657 -0.06039,-0.23645 0.159559,-0.10201 0.198685,0.12148 0.52488,0.0986 0.724864,-0.0508 1.410855,-1.05413 7.21804,-1.31293 9.558223,-0.42596 1.23965,0.46985 1.358272,0.60342 1.376138,1.54947 0.01025,0.5694 -0.02176,1.1209 -0.07224,1.22553 -0.05048,0.10459 -0.93196,-0.14546 -1.958798,-0.55577 -1.6178,-0.64644 -2.214473,-0.72957 -4.470695,-0.62285 -2.130775,0.10077 -2.850901,0.26645 -3.96449,0.91204 -3.882386,2.2508 -5.881963,6.91788 -5.123974,11.9595 0.544546,3.62197 2.002765,6.11782 4.379374,7.49566 2.551767,1.47937 6.732945,1.48353 9.625683,0.0101 l 1.449002,-0.73832 -0.0924,1.26192 c -0.0899,1.22825 -0.136704,1.27923 -1.75046,1.90946 -1.851228,0.72296 -5.214362,1.0384 -7.1538,0.67097 z m 37.381332,0.008 c -5.85457,-1.14309 -9.17145,-6.42402 -8.71677,-13.87825 0.30046,-4.92608 2.62718,-8.86429 6.3745,-10.78955 2.20082,-1.13074 6.31299,-1.30826 8.52255,-0.36794 3.46124,1.47299 5.4797,4.91518 5.72779,9.76784 l 0.14103,2.75857 h -9.23056 -9.23055 l 0.006,0.67101 c 0.003,0.36905 0.20486,1.60324 0.44885,2.74263 1.10446,5.15774 4.77662,7.66721 10.18412,6.95955 1.70664,-0.22335 4.96772,-1.59877 6.01759,-2.53803 0.49502,-0.44286 0.52756,-0.38855 0.52756,0.88072 v 1.3527 l -2.2125,1.08148 c -1.51048,0.73832 -2.92138,1.1725 -4.44657,1.36834 -2.53248,0.32517 -2.39886,0.32548 -4.11227,-0.009 z m 8.17553,-14.87975 1.47394,-0.0153 -0.18251,-1.41657 c -0.44351,-3.44245 -1.70331,-5.54943 -3.96598,-6.63299 -1.19523,-0.57239 -1.75679,-0.65298 -3.75335,-0.53864 -2.42193,0.1387 -4.48072,0.95532 -4.30854,1.70901 0.0456,0.19941 -0.0439,0.28514 -0.19861,0.19049 -0.31433,-0.19217 -1.63768,1.25433 -2.29106,2.50425 -0.57021,1.09084 -1.16452,3.4849 -0.98185,3.95528 0.14212,0.36598 1.05402,0.38168 14.20796,0.24454 z m 14.45123,14.89757 c -3.80934,-0.79033 -6.12821,-3.87981 -5.73571,-7.64184 0.45965,-4.40574 3.84043,-6.54072 11.96802,-7.55781 4.61574,-0.57761 4.3228,-0.40521 4.13676,-2.43482 -0.19847,-2.16523 -1.17675,-4.221 -2.42922,-5.10479 -0.82232,-0.58025 -1.32811,-0.67229 -3.66704,-0.66736 -2.39093,0.005 -2.91008,0.10696 -4.37121,0.85837 -0.91192,0.46895 -2.0311,1.11297 -2.48706,1.43115 l -0.82903,0.57851 v -1.3667 c 0,-1.22064 0.10471,-1.43051 0.97976,-1.96374 2.56632,-1.56384 7.46095,-2.25076 10.21702,-1.4339 1.67798,0.49733 3.37804,2.06829 4.21041,3.89063 0.70606,1.54585 0.72301,1.78202 0.81521,11.36462 l 0.0941,9.78598 -1.14928,-0.0937 -1.14927,-0.0937 -0.15073,-2.22769 c -0.14711,-2.174 -0.16243,-2.20993 -0.63607,-1.49112 -2.12484,3.22468 -6.14201,4.93024 -9.81672,4.16785 z m 5.87819,-2.8079 c 1.41998,-0.72642 3.0666,-2.48712 3.76543,-4.02632 0.43512,-0.95836 0.66087,-2.20814 0.75308,-4.16896 l 0.13168,-2.80029 -0.71609,0.17197 c -0.39385,0.0946 -1.86918,0.32264 -3.27852,0.50677 -5.58196,0.7293 -8.37848,1.72038 -9.17977,3.25324 -1.14877,2.19763 -0.76374,5.0528 0.88847,6.58831 1.51793,1.41068 5.34191,1.64872 7.63572,0.47528 z m 47.13685,2.78216 c -2.11446,-0.36267 -4.5115,-1.5091 -5.69435,-2.72343 -1.37663,-1.41325 -3.02512,-4.25762 -3.25805,-5.62157 -0.11029,-0.64579 -0.29034,-1.17405 -0.40013,-1.17392 -0.10984,1.4e-4 -0.11528,-1.64384 -0.0123,-3.65324 0.25287,-4.92955 1.07142,-6.9611 3.91009,-9.70409 3.0135,-2.91195 9.46667,-3.74424 13.47017,-1.73728 4.35294,2.1821 6.27563,6.23921 6.04107,12.74726 -0.1189,3.29919 -0.18482,3.60233 -1.24537,5.72515 -2.41299,4.82993 -7.16762,7.10909 -12.81121,6.14112 z m 5.88729,-2.54674 c 4.1334,-1.38459 6.05825,-5.16472 5.73712,-11.26708 -0.35499,-6.74665 -3.60407,-9.98125 -9.70759,-9.66434 -2.0573,0.10686 -2.75567,0.28275 -4.10981,1.0353 -2.06284,1.14639 -3.4067,2.8683 -4.18559,5.36296 -0.68116,2.18157 -0.80316,5.45267 -0.29145,7.81308 0.6442,2.97153 3.03572,5.86215 5.59727,6.76544 1.60746,0.56685 5.2024,0.54342 6.96005,-0.0453 z m -34.35857,2.24735 c -0.29148,-0.16791 -0.68549,-0.2102 -0.87559,-0.094 -0.21407,0.13086 -0.26327,0.0794 -0.12924,-0.13508 0.12188,-0.19511 0.005,-0.42669 -0.26773,-0.5302 -0.53024,-0.20129 -1.66431,-2.19882 -1.66431,-2.93148 0,-0.25257 -0.10175,-0.45915 -0.2261,-0.45906 -0.12436,8e-5 -0.18838,-4.16015 -0.14232,-9.24497 l 0.0837,-9.24512 h -2.28759 -2.28755 l 0.0935,-1.11835 0.0935,-1.11835 2.18561,0.0207 2.1856,0.0206 v -3.19739 -3.19738 l 0.94936,-0.3274 c 0.52217,-0.18006 1.0648,-0.32739 1.20585,-0.32739 0.14108,0 0.25649,1.57685 0.25649,3.50413 v 3.50414 h 3.24072 3.24072 v 1.0438 1.04378 l -3.25634,0.0848 -3.25634,0.0848 0.091,9.45838 c 0.0994,10.32952 0.12708,10.49461 1.86315,11.0933 1.22279,0.42169 2.43554,0.37915 3.66382,-0.12856 l 1.04544,-0.43212 v 1.04378 c 0,0.90918 -0.13481,1.09952 -1.04544,1.47591 -1.20006,0.49604 -3.97764,0.55945 -4.76009,0.10866 z M 92.72553,278.93832 v -12.46555 l 1.055116,0.12186 1.055127,0.12186 0.0068,2.57684 0.0068,2.57683 0.556646,-1.21239 c 1.287289,-2.80375 3.759208,-4.58761 6.363741,-4.59237 2.36152,-0.005 2.71316,0.19621 2.71316,1.5472 0,1.01604 -0.0771,1.15874 -0.52756,0.97605 -2.42634,-0.98408 -5.184362,-0.10145 -6.759321,2.16308 -1.910008,2.74629 -2.15794,4.13382 -2.291417,12.82375 l -0.120241,7.8284 H 93.755129 92.72589 v -12.46556 z m 80.18897,0.0178 v -12.4838 h 1.06449 c 0.83026,0 1.09292,0.13455 1.19352,0.61136 0.071,0.33625 0.10061,5.91231 0.066,12.39124 l -0.063,11.77988 -1.13048,0.0925 -1.13049,0.0926 z m 13.26434,11.83378 c 0,-0.17371 0.13566,-0.23288 0.30146,-0.13151 0.16581,0.10133 0.30147,0.24349 0.30147,0.31582 0,0.0723 -0.13566,0.13151 -0.30147,0.13151 -0.1658,0 -0.30146,-0.14212 -0.30146,-0.31582 z m -32.94455,-26.5985 c -0.78483,-0.58296 -1.41913,-2.77727 -1.78877,-6.18817 -0.27977,-2.58157 -0.45644,-3.241 -1.00623,-3.75581 -0.36678,-0.34344 -0.76179,-0.92024 -0.87777,-1.28177 -0.23447,-0.73079 0.32487,-1.63009 0.82404,-1.3249 0.17264,0.1055 0.22563,0.0506 0.11775,-0.12205 -0.10802,-0.17293 0.45179,-0.72526 1.24634,-1.22965 0.79335,-0.50363 1.76355,-1.34531 2.156,-1.8704 l 0.71349,-0.95471 -0.81029,-0.63918 c -0.56438,-0.44516 -1.60803,-0.74829 -3.43838,-0.99864 -2.43153,-0.33259 -2.88734,-0.30534 -6.09489,0.36438 -5.95711,1.24383 -6.41427,1.26082 -7.52426,0.27971 -0.65626,-0.5801 -0.8933,-1.00391 -0.7574,-1.35427 0.22663,-0.58423 3.39588,-2.1659 4.96558,-2.47816 0.58031,-0.11544 1.76746,-0.53999 2.63811,-0.94344 0.87065,-0.40346 1.81014,-0.69018 2.08776,-0.63718 0.48438,0.0924 -4.22169,2.04626 -4.91027,2.03856 -0.59857,-0.007 -4.33753,1.7831 -4.33753,2.07631 0,0.92874 2.97429,1.02259 4.40868,0.1391 0.43199,-0.26607 1.1799,-0.33936 2.2981,-0.22519 1.43834,0.14686 1.74563,0.0823 2.32216,-0.48807 0.36546,-0.36153 0.85747,-0.58407 1.09335,-0.49452 0.23589,0.0896 0.42888,0.006 0.42888,-0.1857 0,-0.26066 0.0911,-0.2583 0.36175,0.009 0.45726,0.45235 3.08953,0.46688 3.93038,0.0218 0.54648,-0.28933 0.7432,-0.21008 1.41211,0.56894 0.84335,0.98214 1.76808,1.37846 2.53605,1.08692 0.43942,-0.16681 0.44282,-0.26985 0.0348,-1.05055 -0.50862,-0.97302 -0.18518,-1.19207 0.39742,-0.26915 0.35688,0.5653 1.55802,0.81433 1.96859,0.40816 0.10471,-0.10358 -0.008,-0.46893 -0.25122,-0.81191 -0.65502,-0.92514 -0.53615,-1.21729 0.28003,-0.68826 1.01297,0.65661 2.37998,0.11249 3.01216,-1.19899 0.26235,-0.54421 0.61482,-0.98947 0.78331,-0.98947 0.49069,0 0.35362,0.53957 -0.22121,0.87078 -0.3074,0.17713 -0.36706,0.30776 -0.14298,0.31304 0.42841,0.0102 -0.22463,1.51503 -1.07246,2.47149 -0.25546,0.28817 -0.61495,0.82497 -0.7989,1.1929 -0.18395,0.36791 -1.04667,1.12499 -1.91718,1.68236 -1.44609,0.92591 -1.54319,1.05669 -1.12427,1.51461 0.57606,0.6297 0.60231,1.09269 0.0356,0.62741 -0.23257,-0.19096 -0.48164,-0.24094 -0.55351,-0.11102 -0.0719,0.12986 -0.0909,0.0727 -0.0425,-0.12712 0.13246,-0.54574 -0.40143,-0.74761 -1.05792,-0.40003 -0.39667,0.21001 -0.52934,0.50729 -0.41662,0.93367 0.12914,0.48856 0.22847,0.53841 0.45345,0.22757 0.21916,-0.30279 0.24949,-0.27836 0.12681,0.10212 -0.21673,0.67214 0.44118,2.33299 0.92413,2.33299 0.21238,0 0.38611,-0.1694 0.38611,-0.37645 0,-0.20705 0.89926,-1.0458 1.99836,-1.86391 1.09911,-0.81809 2.50962,-1.9716 3.13448,-2.56333 0.87901,-0.83238 1.47708,-1.12061 2.64253,-1.27355 1.84583,-0.24223 2.30791,-0.72197 2.04266,-2.12068 -0.21229,-1.11947 0.0232,-1.28434 1.05442,-0.73833 0.32868,0.17401 0.58311,0.62206 0.58311,1.02687 0,0.74852 1.09477,1.74977 1.58527,1.44988 0.15463,-0.0946 0.22761,-0.62575 0.16213,-1.18047 -0.0654,-0.5547 -0.0103,-1.00856 0.12191,-1.00856 0.24255,0 0.37729,0.87937 0.28865,1.88402 -0.0651,0.73784 1.07357,0.41108 1.97268,-0.5661 0.36514,-0.39682 0.79686,-0.72146 0.95944,-0.72146 0.71847,0 1.08821,-3.24499 0.5224,-4.58464 -0.52665,-1.2469 -0.44276,-1.30302 0.72161,-0.4828 l 0.85012,0.59883 1.84878,-0.79317 c 1.39487,-0.59845 1.93404,-0.70886 2.19597,-0.44974 0.26195,0.25914 0.2116,0.34347 -0.20508,0.34347 -0.86326,0 -2.58293,1.18318 -2.58293,1.77715 0,0.29459 0.20855,0.70684 0.46347,0.91611 0.38258,0.31412 0.73756,0.25621 2.03486,-0.33194 0.86427,-0.39186 1.79081,-0.94926 2.05896,-1.23868 0.65816,-0.71034 1.18364,-0.66327 2.50597,0.22446 0.61498,0.41286 1.01487,0.58061 0.88859,0.37278 -0.14437,-0.23764 -0.028,-0.21606 0.31304,0.0582 0.29845,0.23981 1.10453,0.45341 1.79129,0.47465 1.60685,0.0497 3.87843,0.89606 3.15676,1.17618 -0.27699,0.10752 -1.11827,0.13209 -1.86955,0.0547 -0.86136,-0.0888 -1.56604,0.003 -1.90763,0.25103 -0.63608,0.46012 -0.53258,0.61768 0.58846,0.89603 0.56751,0.1409 0.82843,0.09 0.82843,-0.16138 0,-0.28671 0.0956,-0.28857 0.43675,-0.009 0.2402,0.19722 1.01448,0.42424 1.72059,0.50449 1.48296,0.16854 1.84158,0.3319 1.59502,0.72655 -0.0971,0.15537 -0.30276,0.20528 -0.45711,0.11091 -0.15436,-0.0944 -0.28063,-0.0328 -0.28063,0.13686 0,0.21216 -0.25878,0.2118 -0.82902,-9.9e-4 -0.64167,-0.23963 -0.74862,-0.22919 -0.47324,0.0462 0.42684,0.42689 2.10656,0.67687 4.16615,0.62003 0.82902,-0.0229 1.64297,-0.0443 1.80877,-0.0476 0.1658,-0.003 0.73982,0.0782 1.27555,0.18113 0.69083,0.1327 1.32912,0.005 2.19489,-0.44236 0.67144,-0.34622 1.55575,-0.62949 1.96517,-0.62949 0.40941,0 0.74437,-0.14029 0.74437,-0.31173 0,-0.19476 -0.39594,-0.23826 -1.05512,-0.11593 -1.3791,0.25596 -1.34723,-0.0784 0.0631,-0.6614 1.06157,-0.43879 1.1436,-0.43113 1.62061,0.15165 0.27634,0.3376 0.59475,0.52253 0.70756,0.41093 0.1128,-0.11159 0.64024,-0.23046 1.17205,-0.26412 0.92905,-0.0589 0.98675,0.005 1.47129,1.62618 0.2774,0.92806 0.43392,1.75702 0.34788,1.84212 -0.086,0.0851 -3.65758,0.2029 -7.93675,0.26172 -6.09719,0.0839 -8.4422,0.003 -10.83991,-0.37244 -4.38025,-0.68631 -6.17542,-0.64151 -6.94274,0.17328 -0.33809,0.35898 -0.61468,0.74933 -0.61468,0.86746 0,0.34555 -3.61565,3.04632 -5.49533,4.10483 -0.94985,0.53489 -1.79424,1.08011 -1.87636,1.21158 -0.16189,0.25909 -2.04946,0.77997 -3.85871,1.06479 -1.62477,0.25577 -2.4749,1.91474 -2.40716,4.69754 0.0417,1.71166 -0.0477,2.10107 -0.5994,2.60947 -0.89039,0.82061 -1.69499,0.75488 -2.04949,-0.16741 -0.4581,-1.19196 -0.33492,-1.54159 0.26931,-0.76435 0.48556,0.62466 0.57289,0.64796 0.74692,0.19928 0.37557,-0.96817 0.20099,-1.92739 -0.40965,-2.25068 -0.48985,-0.25934 -0.54589,-0.43373 -0.29085,-0.90516 0.22417,-0.4144 0.22012,-0.58393 -0.0139,-0.58393 -0.18143,0 -0.24603,-0.13421 -0.14356,-0.29823 0.10243,-0.16402 -0.0154,-0.29822 -0.26188,-0.29822 -0.36019,0 -0.42193,0.33672 -0.31428,1.71479 0.0951,1.21864 0.0514,1.54222 -0.15133,1.11834 -0.15689,-0.32804 -0.2948,-1.58577 -0.30644,-2.79495 l -0.0211,-2.19851 -0.67829,0.4455 c -0.86923,0.57093 -2.29261,4.15496 -2.31737,5.83502 -0.0102,0.70789 -0.15175,1.53253 -0.31406,1.83254 -0.36245,0.67001 -1.8848,1.23246 -2.43136,0.89831 -0.23793,-0.14547 -0.65125,-0.0723 -1.0148,0.17958 -0.74823,0.51845 -0.83683,0.5216 -1.46876,0.0522 z m 0.6278,-1.178 c 0.75597,-0.74785 0.16683,-3.58028 -0.85751,-4.12259 -0.50104,-0.26527 -0.51237,-0.36961 -0.12089,-1.11205 0.72818,-1.38088 0.54151,-1.81519 -0.59469,-1.38386 -0.60455,0.22949 -0.62827,1.86556 -0.0561,3.86545 0.23143,0.80887 0.50534,1.83974 0.60865,2.29081 0.20503,0.89503 0.46429,1.01247 1.02049,0.46224 z m 2.93666,-0.94508 c 0.2834,-1.49448 0.0719,-2.30129 -0.74272,-2.83395 l -0.73019,-0.47744 0.20263,1.00245 c 0.11144,0.55132 0.20268,1.52246 0.20268,2.15805 0,1.49042 0.79234,1.60241 1.0676,0.15089 z m 0.64094,-4.24857 c 0.46341,-0.69969 0.4707,-0.86075 0.0708,-1.56568 -0.24522,-0.43217 -0.71194,-0.78575 -1.03719,-0.78575 -0.46874,0 -0.61118,0.2384 -0.68682,1.1497 -0.0525,0.63234 -0.0229,1.3369 0.0659,1.56567 0.25634,0.66084 1.02537,0.48452 1.58736,-0.36394 z m 5.8174,-1.88449 c 0.44559,-0.82367 0.3854,-1.51073 -0.13237,-1.51073 -0.37432,0 -1.36432,1.39585 -1.36432,1.92365 0,0.43164 1.22222,0.0945 1.49669,-0.41292 z m -5.17155,-1.23743 c 0.99784,-0.34411 1.53122,-1.3203 1.00556,-1.84033 -0.22236,-0.21997 -0.63787,-0.0723 -1.38655,0.49253 -1.07076,0.80794 -1.24344,1.10077 -0.86803,1.47213 0.24964,0.24698 0.14093,0.2578 1.24902,-0.12433 z m -4.35474,-0.85439 c 0.62728,-0.23592 0.73518,-0.44622 0.65037,-1.26745 -0.0559,-0.54153 -0.30752,-1.4543 -0.55915,-2.02838 -0.34949,-0.79736 -0.50284,-0.92879 -0.6495,-0.55671 -0.10562,0.26789 0.0132,0.97312 0.26415,1.56716 0.44416,1.05164 0.43482,1.09965 -0.35498,1.82415 -0.84856,0.77837 -0.62201,0.93932 0.64911,0.46123 z m -3.38917,-0.81312 c -0.35537,-0.60455 -0.44119,-0.41105 -0.15029,0.3389 0.10335,0.26652 0.25148,0.42176 0.32909,0.34498 0.0776,-0.0768 -0.002,-0.38453 -0.1788,-0.68388 z m 16.92045,0.27623 c -0.20726,-0.0686 -0.37682,-0.29638 -0.37682,-0.5063 0,-0.3486 -2.79067,-3.14731 -3.13825,-3.14731 -0.25279,0 -1.79872,0.70072 -2.50356,1.13478 l -0.66765,0.41117 0.81838,0.85977 c 0.61062,0.64147 1.31598,0.95825 2.77792,1.24755 1.71225,0.33883 4.11435,0.33909 3.08998,3.3e-4 z m 2.60608,-0.48446 c 0.54502,-0.64962 0.1451,-1.166 -1.6433,-2.12194 -1.3898,-0.74289 -1.71203,-0.81972 -1.93577,-0.46158 -0.35151,0.56263 -0.21269,0.74973 1.45416,1.95979 1.60131,1.16246 1.6588,1.17933 2.12491,0.62373 z M 151.81214,252.165 c 0,-0.27772 -0.20511,-0.42985 -0.50258,-0.37277 -0.7563,0.1451 -0.86014,0.84198 -0.12547,0.84198 0.3703,0 0.62805,-0.19257 0.62805,-0.46921 z m 29.39257,-9.96867 c 0.10243,-0.16402 -0.0251,-0.29822 -0.28367,-0.29822 -0.25847,0 -0.46998,0.1342 -0.46998,0.29822 0,0.16403 0.12764,0.29823 0.28368,0.29823 0.156,0 0.36751,-0.1342 0.46997,-0.29823 z m 5.87852,-0.29822 c -0.2487,-0.15899 -0.58785,-0.28909 -0.75366,-0.28909 -0.1658,0 -0.098,0.1301 0.15073,0.28909 0.24871,0.159 0.58786,0.28909 0.75366,0.28909 0.1658,0 0.098,-0.13009 -0.15073,-0.28909 z M 70.093275,262.09548 c -0.124386,-0.36994 -0.04193,-3.49671 0.101975,-3.86775 0.103456,-0.26683 0.0319,-0.53668 -0.159092,-0.59967 -0.350737,-0.11566 -0.201124,-0.36063 1.059446,-1.73474 0.503766,-0.54914 0.501932,-0.57507 -0.04068,-0.57507 -0.504406,0 -0.479019,-0.0967 0.2261,-0.86086 0.436875,-0.47346 0.877202,-0.73055 0.978526,-0.57131 0.101291,0.15926 0.476286,-0.0777 0.833244,-0.52669 0.356969,-0.44892 0.721549,-0.74448 0.810205,-0.65678 0.264907,0.26207 -0.211254,1.73071 -0.503244,1.55218 -0.14812,-0.0905 -0.269305,0.17878 -0.269305,0.59852 0,0.41974 -0.143665,0.76316 -0.319255,0.76316 -0.175591,0 -0.228447,0.14535 -0.11746,0.323 0.221109,0.35392 1.341102,-1.26117 1.341102,-1.93392 0,-0.22199 0.195336,-0.564 0.434094,-0.76002 0.238747,-0.19602 0.476149,-0.64861 0.527558,-1.00574 0.05139,-0.35716 0.229119,-0.58225 0.394923,-0.50024 0.165803,0.082 0.26755,0.24977 0.226099,0.37278 -0.04147,0.12301 0.06825,0.22367 0.243886,0.22367 0.17559,0 0.217384,0.16774 0.09286,0.37278 -0.155699,0.25638 -0.06814,0.24584 0.280357,-0.0338 0.278703,-0.22362 0.454432,-0.49203 0.39049,-0.59645 -0.06392,-0.10449 0.427827,-0.92799 1.092818,-1.83013 1.092009,-1.48142 1.238648,-1.41668 0.5987,0.26436 -0.09537,0.25061 -8.99e-4,0.36188 0.239865,0.2825 0.218488,-0.072 0.44747,-0.45656 0.508849,-0.85444 0.122564,-0.79442 0.697281,-1.5588 0.697281,-0.92735 0,0.2065 0.135655,0.29252 0.301458,0.19115 0.172002,-0.10516 0.31169,0.17546 0.325261,0.65341 l 0.02381,0.83772 0.305093,-0.82697 c 0.167797,-0.45483 0.462317,-0.80797 0.654485,-0.78478 0.818933,0.0988 1.40452,-0.0511 1.40452,-0.35991 0,-0.21786 -0.365116,-0.26365 -1.065701,-0.13363 l -1.065701,0.19778 0.472412,-1.1185 c 0.552613,-1.30835 0.754615,-1.56541 0.754615,-0.96027 0,0.24057 -0.160528,0.59621 -0.35673,0.7903 -0.558333,0.55233 -0.149499,0.68046 0.730357,0.22889 0.705895,-0.3623 0.81139,-0.35237 0.911497,0.0858 0.07588,0.33211 0.275194,0.12674 0.6045,-0.62285 0.270228,-0.61509 0.629636,-1.11834 0.798698,-1.11834 0.169062,0 0.229301,-0.20131 0.133855,-0.44734 -0.109837,-0.28326 0.0046,-0.44733 0.310927,-0.44733 0.297561,0 0.484443,-0.25209 0.484443,-0.65346 0,-0.63936 0.01025,-0.64097 0.45294,-0.0746 0.377558,0.48257 0.422359,0.49206 0.269203,0.0571 -0.127293,-0.36161 -0.02871,-0.52189 0.321044,-0.52189 0.376966,0 0.453441,-0.15994 0.302074,-0.63173 -0.147197,-0.45881 -0.09092,-0.59229 0.205784,-0.48763 0.224653,0.0792 0.651204,0.0205 0.947877,-0.1306 0.298918,-0.15223 -0.07372,0.54926 -0.835864,1.57342 -0.976453,1.31216 -1.320205,2.01973 -1.185405,2.43991 0.126381,0.39389 0.07759,0.52312 -0.146023,0.38644 -0.18474,-0.11296 -0.417266,0.005 -0.516734,0.26087 -0.09947,0.25644 -0.369833,0.46625 -0.600798,0.46625 -0.522157,0 -0.552693,-0.49376 -0.04307,-0.69718 0.271709,-0.10843 0.276677,-0.15698 0.01778,-0.17396 -0.566149,-0.0371 -0.783909,0.55622 -0.380578,1.03698 0.298508,0.35583 0.45294,0.36735 0.823502,0.0615 0.250847,-0.20706 0.809397,-0.53331 1.241212,-0.72503 0.431827,-0.1917 0.618139,-0.35945 0.41403,-0.37277 -0.20411,-0.0132 0.371371,-0.72042 1.278846,-1.57131 0.907486,-0.85089 1.728629,-1.79225 1.824759,-2.0919 0.09616,-0.29965 0.290315,-0.4742 0.431508,-0.38787 0.141192,0.0864 0.550163,-0.28079 0.90883,-0.8158 l 0.652127,-0.97274 -0.650019,0.72964 c -0.539761,0.60589 -0.698568,0.65647 -0.936267,0.29822 -0.243338,-0.36674 -0.348822,-0.3505 -0.703764,0.10833 -0.229643,0.29686 -0.491781,0.42088 -0.582533,0.27561 -0.198959,-0.31847 1.387919,-1.82982 2.744927,-2.61427 0.53886,-0.31151 0.979745,-0.65035 0.979745,-0.753 0,-0.10268 -0.680087,-0.21045 -1.511291,-0.23955 -1.540175,-0.0539 -3.312101,0.5856 -3.312101,1.1954 0,0.23177 -0.120126,0.22846 -0.412196,-0.0114 -0.313798,-0.25764 -0.503893,-0.22913 -0.796293,0.11942 -0.327186,0.39001 -0.299613,0.42724 0.186096,0.25134 0.55676,-0.20166 0.556669,-0.19127 -0.0046,0.44052 -0.315837,0.35585 -0.600422,0.64702 -0.632393,0.64702 -0.03202,0 -0.06882,-0.37083 -0.08181,-0.82406 -0.01812,-0.63093 0.236047,-0.99549 1.084615,-1.55565 0.60956,-0.40238 1.210027,-0.70256 1.33438,-0.66708 0.124352,0.0355 0.497409,-0.20389 0.829027,-0.53192 0.331607,-0.32805 0.84032,-0.61358 1.130476,-0.63452 1.287607,-0.0929 1.824884,-0.18874 2.140813,-0.38188 0.186255,-0.11387 0.509932,-0.0645 0.719282,0.10967 0.209339,0.1742 0.750422,0.59088 1.202393,0.92594 0.451972,0.33507 0.980908,1.13469 1.175424,1.77694 0.271789,0.89742 0.620486,1.29833 1.506256,1.73188 0.633931,0.31027 1.065906,0.6499 0.959932,0.75472 -0.105963,0.10483 0.03338,0.20737 0.309776,0.22788 0.276346,0.0205 0.649027,0.0541 0.828196,0.0745 0.179179,0.0205 0.518317,0.29779 0.753659,0.61618 0.30458,0.41207 0.42922,0.45504 0.43251,0.14911 0.003,-0.36246 0.0504,-0.35971 0.29684,0.0176 0.19482,0.29823 0.29377,0.32309 0.29686,0.0745 0.002,-0.20503 0.14026,-0.37278 0.30607,-0.37278 0.1658,0 0.30146,0.27097 0.30146,0.60214 0,0.49173 0.1368,0.56816 0.74609,0.41688 0.60681,-0.15066 0.81443,-0.0369 1.11214,0.60949 0.31888,0.69236 0.51971,0.78378 1.55874,0.70957 1.00204,-0.0716 1.23271,0.0219 1.44305,0.58433 0.1377,0.36824 0.4571,0.73363 0.70979,0.81201 0.25269,0.0784 0.69684,0.23092 0.98699,0.33896 0.29016,0.1081 0.64359,0.17045 0.78539,0.13866 0.14181,-0.0318 0.42561,0.0799 0.63066,0.24828 0.20506,0.16837 0.45637,0.22347 0.55846,0.12247 0.10209,-0.10098 0.60874,0.16857 1.12589,0.59904 0.51713,0.43047 1.06549,0.78267 1.21858,0.78267 0.15308,0 0.27833,0.18587 0.27833,0.41303 0,0.45489 1.25802,1.37632 1.87907,1.37632 0.21613,0 0.62427,0.36905 0.90697,0.82012 0.30581,0.48795 0.52131,0.63894 0.53205,0.37278 0.0194,-0.47968 1.01322,-1.78936 1.35788,-1.78936 0.11447,0 0.15947,0.60519 0.10004,1.34484 -0.12394,1.54163 0.34002,1.90039 1.6778,1.2974 l 0.7953,-0.35847 -0.81706,-0.84366 c -0.80439,-0.83058 -0.63746,-1.19682 0.21522,-0.47216 0.24042,0.20432 -0.20392,-0.29895 -0.98741,-1.11835 -0.78349,-0.8194 -2.00442,-1.78134 -2.71316,-2.13763 -3.12366,-1.57028 -4.43946,-2.08013 -4.55443,-1.76475 -0.0652,0.17874 -0.21587,0.23582 -0.3349,0.12685 -0.11903,-0.10899 -0.0701,-0.4687 0.10892,-0.79941 0.34144,-0.63114 0.0893,-1.04124 -1.18161,-1.92186 -0.31573,-0.21877 -0.74437,-1.0277 -0.95253,-1.79761 -0.33188,-1.22755 -0.31691,-1.46073 0.12156,-1.8945 0.40662,-0.40226 0.58503,-0.42488 0.95501,-0.12112 0.64162,0.52678 2.14097,0.13354 2.53028,-0.66362 0.17616,-0.3607 0.32946,-0.48808 0.34068,-0.28306 0.0114,0.20504 0.32564,0.37542 0.69869,0.37862 0.59275,0.006 0.5167,0.13988 -0.60292,1.06852 -1.36882,1.13537 -1.52826,1.45208 -0.85886,1.7062 0.48523,0.1842 2.97851,-1.80712 2.74022,-2.18855 -0.0868,-0.13891 -0.0165,-0.33891 0.15606,-0.44444 0.17262,-0.10551 0.29442,-0.0813 0.27068,0.054 -0.13958,0.79491 0.14408,1.25742 1.07556,1.75367 0.89608,0.47739 1.23024,0.50967 2.31392,0.22353 1.01712,-0.26857 1.39479,-0.25135 1.91744,0.0874 0.35797,0.23203 1.61336,0.54143 2.78976,0.68756 1.17639,0.14613 2.318,0.37388 2.53691,0.50614 1.17434,0.70944 3.78203,3.01056 4.22727,3.73029 0.59371,0.95976 1.54849,1.63111 2.72755,1.91788 0.9679,0.23542 1.07738,-0.14468 0.25398,-0.88185 -0.31628,-0.28316 -0.85958,-1.1691 -1.20732,-1.9688 -0.34775,-0.79967 -0.87795,-1.62886 -1.17821,-1.84264 -0.30028,-0.21376 -0.6378,-0.63203 -0.75006,-0.92947 -0.11223,-0.29743 -0.34169,-0.45667 -0.50984,-0.35388 -0.16815,0.1028 -0.38126,-0.008 -0.4736,-0.24585 -0.0923,-0.23802 -0.60009,-0.53249 -1.12835,-0.65435 -0.62669,-0.14458 -0.78413,-0.26613 -0.45302,-0.34974 0.27944,-0.0705 0.48765,-0.38802 0.4634,-0.70655 -0.0505,-0.66229 -0.51421,-0.74854 -1.10566,-0.20564 -0.33153,0.30432 -0.37204,0.27693 -0.22049,-0.14911 0.10209,-0.28704 0.0463,-0.52189 -0.12415,-0.52189 -0.17039,0 -0.21221,-0.16775 -0.093,-0.37278 0.11927,-0.20503 0.10426,-0.27166 -0.0335,-0.14807 -0.13769,0.12359 -0.53947,0.0373 -0.89284,-0.19174 -0.35336,-0.22903 -1.31379,-0.64725 -2.1343,-0.92934 -1.39058,-0.47812 -1.9822,-0.60991 -3.16839,-0.70582 -0.25889,-0.021 -0.76035,-0.30499 -1.11436,-0.63126 -0.35841,-0.33033 -0.85118,-0.51442 -1.11196,-0.41543 -0.25844,0.098 -0.46831,0.022 -0.46831,-0.16996 0,-0.19125 0.16957,-0.26276 0.37683,-0.1589 0.20725,0.10381 0.17168,0.0113 -0.0791,-0.20607 -0.25072,-0.21719 -0.62268,-0.76787 -0.82656,-1.22372 -0.20388,-0.45586 -0.67704,-0.9506 -1.05144,-1.09945 -0.37441,-0.14882 -0.50444,-0.27911 -0.28895,-0.2895 0.70094,-0.0338 2.00474,0.79725 2.68476,1.71131 0.55985,0.75255 1.35437,1.1143 5.03076,2.29058 l 4.36591,1.39689 1.6014,2.11661 c 3.0505,4.03186 4.14697,5.58761 3.93808,5.58761 -0.11542,0 0.0916,0.2089 0.46015,0.46424 0.96013,0.66529 0.92414,2.14531 -0.0581,2.38919 -1.03794,0.25771 -2.53664,-0.54015 -4.25334,-2.26436 -0.81253,-0.81606 -1.5747,-1.48375 -1.69371,-1.48375 -0.11901,0 -0.0832,0.43615 0.0798,0.96923 0.16286,0.53307 0.69599,2.49883 1.18473,4.36834 0.98452,3.7659 0.90653,4.21351 -0.73628,4.22551 -0.51556,0.003 -1.34063,0.0132 -1.83349,0.0209 -0.95145,0.0148 -2.26924,-1.15926 -2.26924,-2.02197 0,-0.89552 -2.10707,-4.15696 -3.6331,-5.62353 l -1.55158,-1.49114 0.21459,1.34202 c 0.11802,0.7381 0.53845,2.10962 0.93429,3.04782 0.91925,2.17874 0.90816,3.0556 -0.0507,4.00411 -0.63512,0.62829 -0.9502,0.72872 -1.79462,0.57201 -0.87465,-0.16233 -1.09741,-0.0795 -1.52526,0.56636 -0.53617,0.80951 -1.72925,1.02267 -2.1473,0.38367 -0.13414,-0.20503 -0.2439,-1.16704 -0.2439,-2.13779 v -1.76502 l -1.95596,-1.30176 c -2.24096,-1.49142 -4.92432,-2.41829 -8.06628,-2.78617 -2.63532,-0.30855 -3.64407,-0.75511 -6.064601,-2.68465 -1.019248,-0.8125 -2.022078,-1.47602 -2.2285,-1.47448 -0.457361,0.003 -3.160837,1.56524 -3.992861,2.30672 -0.331607,0.29551 -1.67754,1.74204 -2.990977,3.21449 -4.792049,5.3722 -8.434776,8.24741 -13.853521,10.93457 -3.422804,1.69737 -4.98465,2.39472 -5.034099,2.24765 z m 1.624218,-5.90854 c -0.236002,-0.23347 -0.392484,-0.22057 -0.559062,0.0461 -0.159719,0.25565 -0.107672,0.29471 0.167934,0.12618 0.300159,-0.18353 0.344698,-0.10246 0.179441,0.3267 -0.176331,0.45789 -0.144724,0.49707 0.159799,0.19802 0.273361,-0.26843 0.287887,-0.46353 0.05184,-0.69698 z m 4.844106,0.45783 c 0.103001,-0.2654 0.05241,-0.38511 -0.118484,-0.28064 -0.163901,0.10022 -0.298006,0.3085 -0.298006,0.46284 0,0.42898 0.216073,0.33445 0.41649,-0.1822 z m 3.528106,-5.23472 c -0.265579,-0.65678 -0.290372,-0.66427 -0.307941,-0.093 -0.01026,0.34171 0.07133,0.71077 0.181868,0.82012 0.360057,0.35619 0.421299,0.003 0.126073,-0.72712 z m 46.810085,-1.01253 c -0.0955,-0.24602 -0.22685,-0.44732 -0.29201,-0.44732 -0.0652,0 -0.11847,0.2013 -0.11847,0.44732 0,0.24605 0.13139,0.44735 0.292,0.44735 0.1606,0 0.21391,-0.2013 0.11848,-0.44735 z m -2.61625,-0.80146 c -0.0963,-0.23791 -0.16767,-0.16725 -0.18213,0.18017 -0.0131,0.31438 0.0582,0.49051 0.15833,0.39142 0.10015,-0.0991 0.11086,-0.35632 0.0238,-0.57159 z m 1.45202,-1.53853 c -0.2531,-0.59927 -0.51673,-1.08958 -0.58584,-1.08958 -0.15453,0 0.3103,1.64638 0.59226,2.09769 0.43559,0.69724 0.43133,0.0283 -0.007,-1.00811 z m -2.45266,-0.0441 c -0.095,-0.2451 -0.29652,-0.37003 -0.44764,-0.27763 -0.31611,0.19326 -0.0623,0.72324 0.34629,0.72324 0.15082,0 0.19643,-0.20054 0.10141,-0.44561 z m -19.40326,-1.16272 c 0,-0.0645 -0.21053,-0.19712 -0.46785,-0.2948 -0.26828,-0.1019 -0.38928,-0.0518 -0.28367,0.1172 0.17703,0.28337 0.75152,0.41914 0.75152,0.1776 z m -2.8639,-1.37392 c -0.30194,-0.33006 -0.6168,-0.533 -0.69971,-0.45099 -0.0829,0.0821 0.0963,0.41917 0.39825,0.74921 0.30195,0.33007 0.61682,0.53301 0.69972,0.451 0.0829,-0.0821 -0.0963,-0.41915 -0.39826,-0.74922 z m -1.197161,-0.28433 c -0.09776,-0.15639 -0.614425,-0.58189 -1.148284,-0.94554 l -0.970631,-0.66117 0.885416,0.94553 c 0.818865,0.87442 1.64256,1.31595 1.233499,0.66118 z m 14.423501,-0.53578 c -0.20375,-1.12305 -0.58913,-1.44438 -1.16511,-0.97148 -0.42721,0.35074 -0.40803,0.46051 0.19051,1.09079 0.87356,0.91988 1.15687,0.88519 0.9746,-0.11931 z M 93.931388,238.3194 c 0,-0.16404 -0.05982,-0.29823 -0.132944,-0.29823 -0.07315,0 -0.216779,0.13419 -0.319256,0.29823 -0.10243,0.16402 -0.04261,0.29822 0.132944,0.29822 0.17559,0 0.319256,-0.1342 0.319256,-0.29822 z m 78.693412,21.41596 c -0.33809,-0.35897 -0.61469,-0.88092 -0.61469,-1.15986 0,-0.6657 0.89164,-1.66763 1.68605,-1.89458 0.87431,-0.24978 2.13074,0.7953 2.29609,1.90986 0.0733,0.49391 0.0777,0.84313 0.0103,0.77604 -0.0678,-0.0671 -0.38334,0.13524 -0.70111,0.44963 -0.76707,0.75882 -1.91815,0.72395 -2.67629,-0.081 z M 70.006843,256.06381 c 0.09548,-0.24603 0.22684,-0.44734 0.292001,-0.44734 0.06517,0 0.118485,0.20131 0.118485,0.44734 0,0.24603 -0.131405,0.44733 -0.292013,0.44733 -0.160596,0 -0.213908,-0.2013 -0.118473,-0.44733 z m 6.439724,-6.07841 c 0,-0.16402 0.135655,-0.38117 0.30147,-0.48254 0.165803,-0.10133 0.301459,-0.0502 0.301459,0.11391 0,0.16403 -0.135656,0.38116 -0.301459,0.48254 -0.165815,0.10133 -0.30147,0.0502 -0.30147,-0.11391 z m 38.346803,0.009 c -0.31177,-0.19564 -0.29507,-0.32425 0.0823,-0.63407 0.4058,-0.33317 0.44355,-0.31178 0.26451,0.14981 -0.14373,0.37051 -0.0989,0.47119 0.14382,0.32281 0.19398,-0.1186 0.3527,-0.0735 0.3527,0.10021 0,0.37591 -0.30644,0.39816 -0.8433,0.0613 z m 0.99403,-0.93833 c -0.10243,-0.16403 -0.0426,-0.29822 0.13293,-0.29822 0.17559,0 0.31925,0.13419 0.31925,0.29822 0,0.16402 -0.0598,0.29822 -0.13293,0.29822 -0.0731,0 -0.21678,-0.1342 -0.31925,-0.29822 z m 76.04386,-3.80457 c -0.29015,-0.0639 -0.52755,-0.24046 -0.52755,-0.39245 0,-0.38096 0.82356,-0.34878 1.0675,0.0418 0.25425,0.40694 0.11794,0.49549 -0.53995,0.35073 z m 1.43195,-0.37059 c -0.10243,-0.16402 -0.0426,-0.29822 0.13294,-0.29822 0.17557,0 0.31925,0.1342 0.31925,0.29822 0,0.16403 -0.0598,0.29823 -0.13295,0.29823 -0.0731,0 -0.21678,-0.1342 -0.31924,-0.29823 z m 3.35507,0.0624 c -0.21859,-0.34988 0.64103,-1.12933 0.93009,-0.84336 0.11052,0.10933 -0.0123,0.4097 -0.27307,0.66756 -0.28192,0.2789 -0.54811,0.35013 -0.65702,0.1758 z M 83.386254,244.12819 c 0.209726,-0.25 0.443414,-0.39313 0.519286,-0.31808 0.209066,0.20683 -0.215709,0.77263 -0.580038,0.77263 -0.199905,0 -0.177027,-0.17112 0.06073,-0.45455 z m 110.630616,0.16568 c 0,-0.15887 0.20348,-0.21162 0.45218,-0.11721 0.24871,0.0945 0.4522,0.2244 0.4522,0.28887 0,0.0645 -0.20349,0.11721 -0.4522,0.11721 -0.2487,0 -0.45218,-0.13 -0.45218,-0.28887 z m 8.44094,-0.60581 c -0.24871,-0.159 -0.31654,-0.28909 -0.15073,-0.28909 0.1658,0 0.50495,0.13009 0.75366,0.28909 0.2487,0.15899 0.31653,0.28909 0.15072,0.28909 -0.1658,0 -0.50495,-0.1301 -0.75365,-0.28909 z m -16.37945,-0.19882 c -0.11052,-0.10934 -0.20097,-0.33749 -0.20097,-0.50698 0,-0.18687 0.14041,-0.16926 0.35671,0.0447 0.19623,0.1941 0.28666,0.42223 0.20099,0.50698 -0.0857,0.0848 -0.24621,0.0646 -0.35673,-0.0447 z M 84.887519,242.36365 c 0,-0.23636 0.122996,-0.50494 0.273338,-0.59686 0.150342,-0.092 0.202355,0.10144 0.11558,0.42974 -0.184079,0.69635 -0.388918,0.78437 -0.388918,0.16712 z m 107.169831,0.13152 c 0.10243,-0.16403 0.24616,-0.29823 0.31926,-0.29823 0.0731,0 0.13294,0.1342 0.13294,0.29823 0,0.16402 -0.14367,0.29821 -0.31924,0.29821 -0.1756,0 -0.23542,-0.13419 -0.13296,-0.29821 z m -1.43194,-0.19752 c 0.20725,-0.0827 0.5464,-0.0827 0.75366,0 0.20725,0.0827 0.0377,0.15042 -0.37683,0.15042 -0.41451,0 -0.58409,-0.0677 -0.37683,-0.15042 z M 83.681662,241.6546 c 0,-0.36042 0.571937,-0.78062 0.781003,-0.57382 0.07588,0.0751 -0.06882,0.30624 -0.321523,0.51373 -0.286498,0.23522 -0.45948,0.25784 -0.45948,0.06 z m -13.253577,-0.75507 c 0.511743,-0.4669 6.319952,-3.53138 6.319952,-3.33448 0,0.14209 -3.62607,2.36894 -5.212322,3.20099 -1.175549,0.61662 -1.707425,0.68072 -1.10763,0.13349 z m 78.821625,0.0892 c 1.49224,-0.1503 3.32362,-0.46588 4.06975,-0.70131 0.74611,-0.23541 2.23835,-0.5901 3.31608,-0.7882 1.07773,-0.1981 2.73953,-0.74375 3.69291,-1.21256 2.16923,-1.06667 2.28089,-0.71951 0.15042,0.46763 -0.94719,0.52779 -2.2668,0.96232 -3.28746,1.08254 -0.93783,0.11046 -2.15875,0.43563 -2.71316,0.72264 -0.74989,0.3882 -1.89596,0.54498 -4.47488,0.61217 l -3.46682,0.0903 z m -64.761192,-0.70077 c -0.09765,-0.25181 -0.0572,-0.53142 0.0899,-0.62136 0.39417,-0.241 0.728409,0.44539 0.383175,0.78691 -0.192966,0.1909 -0.35706,0.13348 -0.47305,-0.16555 z m 23.162442,-0.18357 c 0.10414,-0.16671 0.31563,-0.22589 0.46999,-0.13152 0.41813,0.25565 0.34016,0.43461 -0.18936,0.43461 -0.25849,0 -0.38478,-0.1364 -0.28063,-0.30309 z m 74.60888,-0.85462 c 0,-0.16402 0.13565,-0.38115 0.30146,-0.48253 0.1658,-0.10133 0.30145,-0.0502 0.30145,0.11391 0,0.16402 -0.13565,0.38117 -0.30145,0.48254 -0.16581,0.10133 -0.30146,0.0502 -0.30146,-0.11392 z m -19.44348,-1.52498 c -0.21132,-0.33825 -0.12674,-0.37853 2.78822,-1.32799 1.36819,-0.44564 2.65694,-0.74861 2.86389,-0.67324 0.20696,0.0754 -0.0307,0.24289 -0.52809,0.37232 -0.49742,0.12942 -1.81749,0.607 -2.93351,1.06129 -1.116,0.45429 -2.10173,0.70973 -2.19051,0.56762 z m -83.699929,-1.05618 c 0.55651,-0.25514 1.43828,-0.526 1.959503,-0.60194 l 0.947684,-0.13807 -1.01182,0.4639 c -0.556498,0.25514 -1.43828,0.52602 -1.959503,0.60194 l -0.947683,0.13806 z m 3.057927,-0.40035 c 0,-0.58281 1.125747,-1.44248 3.768277,-2.87764 2.838208,-1.54143 3.837585,-1.78225 1.209879,-0.29154 -0.99261,0.5631 -1.974737,1.25381 -2.182492,1.53488 -0.207756,0.28106 -0.471968,0.41782 -0.587137,0.30391 -0.115157,-0.11394 -0.659191,0.22413 -1.208956,0.75127 -0.549764,0.52713 -0.999571,0.78773 -0.999571,0.57912 z m 89.082092,-1.19502 c 0.99484,-0.28609 2.25147,-0.7506 2.79255,-1.03225 0.54106,-0.28166 2.23678,-0.7137 3.76827,-0.9601 1.5315,-0.24638 3.25933,-0.66052 3.83964,-0.92028 1.49543,-0.6694 3.31609,-1.29384 3.31609,-1.13733 0,0.0729 -1.05136,0.6521 -2.33633,1.28711 -1.94164,0.95948 -2.7438,1.18189 -4.74804,1.31644 -1.91354,0.12846 -2.77607,0.35267 -4.17571,1.08546 -1.19716,0.6268 -2.16591,0.91676 -3.01462,0.90234 l -1.25062,-0.0213 z m -63.30707,-1.97306 c -0.49741,-0.22547 -1.29345,-0.49194 -1.76898,-0.59215 -0.47553,-0.1002 -0.78926,-0.25673 -0.6972,-0.34781 0.24326,-0.24064 5.33007,0.57402 5.33007,0.85361 0,0.12963 -0.26022,0.23569 -0.57826,0.23569 -0.31805,0 -0.75895,0.0586 -0.97976,0.1303 -0.22081,0.0717 -0.80846,-0.0542 -1.30587,-0.27964 z m 3.32158,-0.14008 c -0.18988,-0.30395 2.48244,-0.77835 2.77183,-0.49206 0.29267,0.28952 0.0324,0.40451 -1.33404,0.58917 -0.69845,0.0944 -1.34544,0.0507 -1.43779,-0.0971 z m -21.107861,-1.49992 c 0.102431,-0.16402 0.321979,-0.29822 0.487783,-0.29822 0.165803,0 0.217622,0.1342 0.115146,0.29822 -0.102431,0.16402 -0.321968,0.29822 -0.487771,0.29822 -0.165803,0 -0.217622,-0.1342 -0.115158,-0.29822 z m 4.748034,-0.21836 c -0.704664,-0.0628 -1.281215,-0.25628 -1.281215,-0.42997 0,-0.34126 3.21122,-0.10607 4.735079,0.34684 0.7021,0.20866 0.591568,0.24582 -0.665333,0.22375 -0.829028,-0.0145 -2.083855,-0.0779 -2.788531,-0.14062 z m 90.815507,-0.31633 c 0.16582,-0.16461 1.52239,-0.52546 3.01463,-0.80188 2.87712,-0.53299 4.44195,-0.92371 5.42633,-1.35489 2.30621,-1.0102 4.4342,-1.77991 4.88968,-1.76864 0.29513,0.007 -1.09126,0.69362 -3.08091,1.52517 -2.3859,0.99714 -4.48999,1.65097 -6.17998,1.9204 -1.40934,0.22468 -2.96941,0.4919 -3.46682,0.59382 -0.60473,0.12392 -0.80451,0.0861 -0.60293,-0.11398 z"
       id="path803"
       sodipodi:nodetypes="ccccsssssssssssssssccccccsssssccccsssccccccccccccccccccccccssscssssscscssssssccssccsssssccccsssscssssccssssssssccsssscsscssssscccssccssscssssscssscssssccssssssssscsscssscccccccccssscccccccssscssccccccccscsssscccccccsssccccssssscssssssscsssssssscsssssscsssssscssssssssssscssssssssssssscsssssscssssssssscssscsscssssssscscssssssscsscsssssssssssssssssccscsssccsssssssssscsssssssssssssssssssssssssscsscsssscssssssssssssssssssssssscsssssssssssssssssssssssssssscsssscsssssssssscssssssssssscsssssssscssssssssssscssssssssssssscscscsssssssssssssssssscscsssssscssssscsssssssssssssssssssssssssssssssssssssssscsscssscsccsscssssssscssssssscccssssccssssscssssssssssssscssccsssssssssssssssscssssssssssscssscsccsssssssssssssssssssssssssssssssssscssssssssssssssssssssssssssssssssssssssssssssssssssscssssssssssssssssssssssscsscssssssssssssssssscssssssssssssssssssssssssssssss" /></g></svg>
