<?xml version="1.0" encoding="UTF-8" standalone="no"?>
<!-- Created with Inkscape (http://www.inkscape.org/) -->

<svg
   width="210mm"
   height="75mm"
   viewBox="0 0 210 75"
   version="1.1"
   id="svg5"
   xml:space="preserve"
   inkscape:version="1.2 (dc2aedaf03, 2022-05-15)"
   sodipodi:docname="logo.svg"
   xmlns:inkscape="http://www.inkscape.org/namespaces/inkscape"
   xmlns:sodipodi="http://sodipodi.sourceforge.net/DTD/sodipodi-0.dtd"
   xmlns="http://www.w3.org/2000/svg"
   xmlns:svg="http://www.w3.org/2000/svg"><sodipodi:namedview
     id="namedview7"
     pagecolor="#ffffff"
     bordercolor="#666666"
     borderopacity="1.0"
     inkscape:showpageshadow="2"
     inkscape:pageopacity="0.0"
     inkscape:pagecheckerboard="0"
     inkscape:deskcolor="#d1d1d1"
     inkscape:document-units="mm"
     showgrid="false"
     inkscape:zoom="1.1893044"
     inkscape:cx="499.45161"
     inkscape:cy="205.16194"
     inkscape:window-width="1920"
     inkscape:window-height="1009"
     inkscape:window-x="-8"
     inkscape:window-y="-8"
     inkscape:window-maximized="1"
     inkscape:current-layer="layer1" /><defs
     id="defs2" /><g
     inkscape:label="Ebene 1"
     inkscape:groupmode="layer"
     id="layer1"
     transform="translate(0,-222)"><g
       clip-path="none"
       style="fill:#000000;fill-opacity:1"
       transform="matrix(2.4613756,0,0,2.3997859,-102.1079,-270.17722)"
       id="g852"><path
         id="path4172"
         style="font-weight:300;font-size:57.1068px;line-height:1.25;font-family:'Segoe UI';-inkscape-font-specification:'Segoe UI Light';letter-spacing:-3.56696px;word-spacing:0px;stroke-width:0.748843;fill:#000000;fill-opacity:1"
         d="m 123.23752,207.17623 c -0.0701,-7e-5 -0.2066,0.0441 -0.35096,0.11729 -0.19247,0.0976 -0.73538,0.32602 -1.20651,0.50755 -0.47113,0.18153 -1.08308,0.43362 -1.3598,0.56031 -0.27671,0.12669 -0.96376,0.31745 -1.52674,0.42386 -0.56299,0.10641 -1.24443,0.23629 -1.5143,0.28874 -0.26989,0.0524 -0.4906,0.13729 -0.4906,0.18853 0,0.0512 0.0736,0.0725 0.16353,0.0475 0.09,-0.0251 0.25692,-0.0724 0.37101,-0.10517 0.11407,-0.0327 0.49255,-0.0955 0.84112,-0.13941 1.18268,-0.1492 1.37147,-0.19576 2.07779,-0.51273 0.3881,-0.17417 1.18931,-0.51305 1.78047,-0.75303 0.59116,-0.23997 1.12724,-0.45793 1.1912,-0.48431 0.064,-0.0264 0.0952,-0.0821 0.0695,-0.12368 -0.006,-0.0104 -0.0224,-0.0154 -0.0457,-0.0154 z m -43.356166,1.92374 c -0.108633,-3e-4 -0.236197,0.0189 -0.320566,0.0512 -0.202707,0.0776 -0.202502,0.0788 0.02906,0.13457 0.128513,0.0309 0.507097,0.0693 0.841233,0.0855 v -1.1e-4 c 0.817183,0.0396 1.810705,0.0431 1.401972,0.005 -0.281086,-0.0261 -0.634472,-0.0774 -1.851718,-0.26926 -0.02969,-0.005 -0.06378,-0.007 -0.09999,-0.007 z m -1.22611,0.16177 c -0.04233,0 -0.08471,0.006 -0.116837,0.0194 -0.06426,0.0259 -0.0117,0.0472 0.116837,0.0472 0.128513,0 0.181096,-0.0212 0.116842,-0.0472 -0.03215,-0.013 -0.07449,-0.0194 -0.116842,-0.0194 z m 37.969836,0.007 c -0.0352,-5.2e-4 -0.12542,0.0149 -0.2513,0.0341 -0.42148,0.0638 -1.45451,0.55827 -1.45451,0.69619 0,0.0507 -0.0446,0.0922 -0.099,0.0922 -0.0544,0 -0.0758,-0.0375 -0.0475,-0.0834 0.0298,-0.0482 -0.0959,-0.0514 -0.29821,-0.008 -0.19236,0.0417 -0.715,0.11893 -1.16147,0.17179 -0.5924,0.0701 -0.91398,0.16061 -1.18987,0.33478 -0.20793,0.13125 -0.43951,0.23863 -0.51461,0.23863 -0.0751,0 -0.15895,0.0363 -0.18644,0.0808 -0.0275,0.0445 -0.30337,0.1308 -0.61305,0.19173 -0.30968,0.0609 -0.56306,0.12966 -0.56306,0.15274 0,0.0799 0.57299,0.0417 1.01005,-0.0674 0.38838,-0.0969 0.90775,-0.37637 1.04936,-0.5646 0.0873,-0.11597 1.75049,-0.34594 2.09619,-0.28984 0.25974,0.0422 0.40784,0.002 0.68177,-0.18501 0.19246,-0.13138 0.5391,-0.32218 0.77042,-0.42397 0.66019,-0.29051 0.84873,-0.36978 0.77119,-0.37112 z m -38.361543,0.0761 c -0.08692,-5.3e-4 -0.184071,0.0407 -0.215841,0.0921 -0.07311,0.11829 0.05067,0.11829 0.23368,0 0.120823,-0.0781 0.118363,-0.0905 -0.01783,-0.0921 z m 4.399411,0.10396 c -0.05083,-5.3e-4 -0.105067,0.005 -0.150537,0.0167 v 2.2e-4 c -0.09094,0.0237 -0.03913,0.0449 0.11508,0.0465 0.154245,0.002 0.22857,-0.0175 0.165292,-0.0431 -0.03163,-0.0129 -0.07901,-0.0197 -0.129835,-0.0204 z m 0.478594,0.0937 c -0.04233,0 -0.08472,0.006 -0.116837,0.0194 -0.06426,0.0259 -0.0117,0.0472 0.116837,0.0472 0.128508,0 0.181102,-0.0212 0.116843,-0.0472 -0.03215,-0.013 -0.07449,-0.0194 -0.116843,-0.0194 z m -5.388312,0.0328 c -0.0058,-5.2e-4 -0.01652,0.001 -0.03262,0.006 -0.232914,0.0665 -2.399045,1.24654 -2.694928,1.46816 -0.08565,0.0642 -0.165512,0.22178 -0.177519,0.3503 -0.01967,0.21036 -0.01332,0.21498 0.06354,0.0467 0.04695,-0.10269 0.08822,-0.14882 0.09184,-0.1023 0.0037,0.0465 0.08969,0.009 0.191282,-0.0826 0.1016,-0.0919 0.168329,-0.19373 0.14823,-0.2263 -0.02009,-0.0325 0.065,-0.10714 0.189189,-0.16574 0.124191,-0.0586 0.20224,-0.0684 0.173444,-0.0218 -0.0288,0.0466 -0.0037,0.0847 0.05539,0.0847 0.05925,0 0.127165,-0.0741 0.150868,-0.16475 0.04616,-0.1765 0.243493,-0.30657 1.341301,-0.88417 0.337346,-0.1775 0.540529,-0.30379 0.499958,-0.30802 z m 5.855677,0.0606 c -0.04233,0 -0.08472,0.007 -0.116843,0.0195 -0.06425,0.0259 -0.01164,0.047 0.116843,0.047 0.128507,0 0.18098,-0.0211 0.116726,-0.047 -0.03215,-0.013 -0.07438,-0.0195 -0.116726,-0.0195 z m 0.841777,0.091 c -0.395022,0.009 -0.403813,0.0145 -0.140849,0.0892 0.154219,0.0439 0.438279,0.10459 0.631224,0.13501 0.192951,0.0304 0.403289,0.11484 0.467365,0.18765 0.08523,0.0969 0.241877,0.11728 0.58376,0.0764 0.257026,-0.0307 0.484831,-0.0712 0.506237,-0.09 0.0795,-0.0696 -0.05104,-0.11167 -0.506237,-0.16365 -0.257026,-0.0293 -0.614293,-0.0963 -0.793873,-0.14877 -0.179575,-0.0525 -0.515961,-0.0911 -0.747627,-0.0859 z m 2.796244,0.16761 c -0.299459,0.004 -0.59905,0.0239 -0.632766,0.0576 -0.02255,0.0226 0.01558,0.10929 0.08468,0.19261 0.115143,0.13876 0.130648,0.13736 0.184784,-0.0169 0.05575,-0.15891 0.06517,-0.1581 0.165188,0.0143 0.09398,0.16201 0.106178,0.16416 0.108801,0.0191 0.0021,-0.12915 0.08476,-0.16353 0.392258,-0.16353 0.214183,0 0.362108,-0.0274 0.328712,-0.0608 -0.03289,-0.0329 -0.332205,-0.046 -0.63166,-0.0424 z m 1.1031,0.15197 c -0.03126,-0.002 -0.04217,0.0105 -0.02413,0.0398 0.03341,0.054 0.114057,0.0983 0.179171,0.0983 0.252867,0 0.738463,0.73731 0.498526,0.75698 -0.06264,0.005 -0.01196,0.0379 0.112767,0.0727 0.1247,0.0348 0.24386,0.11487 0.264841,0.17774 0.02513,0.0753 -0.0203,0.0937 -0.133244,0.0537 -0.14022,-0.0495 -0.150102,-0.0377 -0.05451,0.0653 0.09087,0.0979 0.141715,0.101 0.228948,0.0138 0.155704,-0.15571 0.266667,-0.14036 0.202072,0.0279 -0.0343,0.0895 0.0016,0.14019 0.09933,0.14019 0.08422,0 0.176081,0.0599 0.204164,0.13303 0.02806,0.0731 0.113061,0.15678 0.188865,0.18589 0.09202,0.0353 0.114707,0.0144 0.06827,-0.0629 -0.0513,-0.0853 -0.03047,-0.084 0.07962,0.005 0.08482,0.0688 0.246824,0.0964 0.37541,0.0641 0.141573,-0.0356 0.267485,-0.007 0.336643,0.0764 0.06457,0.0778 0.20739,0.11455 0.343582,0.0885 0.147018,-0.0281 0.233024,-0.002 0.233024,0.0712 0,0.0908 0.03042,0.0903 0.142387,-0.003 0.118311,-0.0982 0.132871,-0.0934 0.08623,0.0281 -0.03955,0.10307 -0.0068,0.13899 0.111224,0.12168 0.159743,-0.0234 0.237635,0.0195 0.553921,0.30526 0.117126,0.10584 0.164165,0.10584 0.292484,0 0.137624,-0.11352 0.141809,-0.10536 0.04196,0.082 -0.09572,0.17955 -0.08991,0.20016 0.04228,0.14944 0.131036,-0.0503 0.137629,-0.0297 0.04558,0.14228 -0.121013,0.22611 0.0031,0.27335 0.174765,0.0665 0.11904,-0.14343 0.414644,-0.0931 0.3231,0.0551 -0.02985,0.0483 -0.0037,0.14902 0.0587,0.22388 0.09538,0.11489 0.05663,0.13808 -0.24899,0.14878 -0.2586,0.009 -0.295133,0.025 -0.128183,0.0557 0.128513,0.0237 0.284333,0.0846 0.346336,0.13545 0.06202,0.0509 0.156449,0.0656 0.209893,0.0326 0.05343,-0.0331 0.146168,0.0474 0.206042,0.17884 0.05988,0.13141 0.146667,0.23896 0.192825,0.23896 0.04616,0 0.05829,-0.0416 0.02685,-0.0924 -0.0332,-0.0537 0.0059,-0.0683 0.09327,-0.0347 0.08271,0.0317 0.128565,0.11475 0.101867,0.18445 -0.04826,0.12579 0.290265,0.37783 0.446546,0.33246 0.04485,-0.013 0.05674,0.0411 0.02633,0.12037 -0.03325,0.0867 -0.0042,0.14404 0.07323,0.14404 0.07749,0 0.111125,0.0664 0.08479,0.16716 -0.02476,0.0947 0.03976,0.24286 0.148885,0.3416 0.105979,0.0959 0.192714,0.24446 0.192714,0.33004 0,0.0856 0.126158,0.29695 0.280373,0.46968 0.154219,0.17274 0.280372,0.34133 0.280372,0.37474 0,0.0962 -0.588193,0.0468 -0.794424,-0.0666 -0.272625,-0.15 -0.79443,-0.74759 -0.79443,-0.90983 0,-0.0767 -0.09467,-0.18971 -0.210333,-0.25108 -0.115662,-0.0614 -0.265182,-0.18902 -0.332352,-0.28368 -0.06717,-0.0947 -0.20641,-0.17201 -0.309331,-0.17201 -0.102932,0 -0.167873,-0.0316 -0.144375,-0.0702 0.0235,-0.0385 -0.142596,-0.21188 -0.369021,-0.38521 -0.36234,-0.27738 -0.487165,-0.31778 -1.041873,-0.33709 -0.75937,-0.0264 -1.389131,-0.18863 -1.499763,-0.38631 -0.07309,-0.13064 -0.117771,-0.12981 -0.447102,0.009 -0.412924,0.17382 -1.13828,0.12075 -1.218841,-0.0892 -0.02628,-0.0684 -0.133218,-0.14683 -0.237645,-0.1741 -0.104437,-0.0273 -0.162103,-0.0946 -0.128182,-0.14945 0.143467,-0.23213 -0.189971,-0.0742 -0.455248,0.21563 -0.300781,0.32863 -0.89572,0.75286 -0.770196,0.54918 0.04579,-0.0743 0.01899,-0.11684 -0.07367,-0.11684 -0.190931,0 -0.184568,-0.1079 0.01783,-0.30328 0.08996,-0.0868 0.2678,-0.26436 0.395232,-0.39457 0.127433,-0.13021 0.285182,-0.23676 0.350522,-0.23676 0.06533,0 0.11871,-0.0473 0.11871,-0.10517 0,-0.0665 -0.100892,-0.0849 -0.274315,-0.0502 -0.242313,0.0485 -0.269908,0.0315 -0.235882,-0.14504 0.0268,-0.1391 0.0088,-0.17011 -0.05925,-0.10208 -0.08557,0.0856 -0.147574,0.27564 -0.171135,0.52485 -0.0037,0.0417 -0.03971,0.0556 -0.07951,0.0309 -0.03981,-0.0246 -0.218563,-0.0126 -0.397215,0.0266 -0.257183,0.0565 -0.366939,0.0337 -0.527154,-0.10979 -0.201317,-0.18024 -0.203189,-0.17999 -0.358783,0.0575 -0.154933,0.23646 -0.134042,0.63418 0.05209,0.99088 0.04112,0.0788 0.09785,0.2177 0.126089,0.30868 0.02822,0.091 0.195773,0.25064 0.372327,0.35481 0.396165,0.23375 0.470138,0.40836 0.289619,0.68386 -0.07674,0.11708 -0.111308,0.24107 -0.07686,0.27553 0.127217,0.12721 0.199533,0.0566 0.151308,-0.14767 -0.04437,-0.18796 -0.03603,-0.19423 0.07885,-0.0587 0.07068,0.0834 0.212583,0.17474 0.315394,0.20296 0.344028,0.0945 1.2754,0.5095 1.381379,0.61548 0.05762,0.0576 0.172704,0.10472 0.25582,0.10472 0.156465,0 1.587311,1.3017 1.587311,1.44404 0,0.0442 -0.07357,0.0162 -0.163535,-0.0623 -0.08996,-0.0785 -0.268702,-0.19556 -0.397209,-0.26033 -0.155427,-0.0783 -0.09591,0.0111 0.177734,0.26705 l 0.411418,0.38488 -0.233128,0.18347 c -0.272143,0.21405 -0.669819,0.20042 -0.898605,-0.0308 -0.137204,-0.13872 -0.138369,-0.15257 -0.0088,-0.10374 0.125471,0.0473 0.150501,-0.0261 0.154173,-0.4558 0.0037,-0.40175 -0.0236,-0.50136 -0.1262,-0.46196 -0.07195,0.0276 -0.130826,0.0777 -0.130826,0.11133 0,0.0336 -0.104537,0.1738 -0.232363,0.31165 -0.20566,0.22179 -0.216444,0.26666 -0.09349,0.38961 0.07642,0.0764 0.138705,0.17351 0.138421,0.21574 -2.41e-4,0.0422 -0.14739,-0.0833 -0.327065,-0.27895 -0.179669,-0.19562 -0.326735,-0.39549 -0.326735,-0.44401 0,-0.0486 -0.03147,-0.0813 -0.07004,-0.0729 -0.318856,0.0697 -1.035075,-0.46919 -0.904437,-0.68055 0.02801,-0.0454 -0.01469,-0.0825 -0.09482,-0.0825 -0.08014,0 -0.223498,-0.0736 -0.318584,-0.16354 -0.431418,-0.40816 -0.574844,-0.49544 -0.574844,-0.34964 0,0.0766 -0.04652,0.13931 -0.103404,0.13931 -0.0569,0 -0.0784,-0.0653 -0.04778,-0.14504 0.03058,-0.0798 0.01699,-0.12116 -0.03026,-0.0919 -0.04726,0.0292 -0.113932,0.008 -0.148115,-0.0475 -0.04023,-0.0651 -0.110936,-0.0408 -0.200314,0.0686 -0.07596,0.093 -0.115364,0.12271 -0.08744,0.066 0.05781,-0.11755 -0.38032,-0.34727 -0.509761,-0.26727 -0.07408,0.0458 -0.402245,-0.39206 -0.492909,-0.65766 -0.02108,-0.0617 -0.07666,-0.061 -0.163975,0.002 -0.07262,0.0525 -0.273659,0.0935 -0.446767,0.0914 -0.265602,-0.004 -0.338557,-0.0547 -0.467584,-0.32794 -0.174451,-0.36948 -0.388455,-0.45068 -0.608319,-0.23082 -0.158988,0.1588 -0.182455,0.1281 -0.15637,-0.20329 0.0087,-0.11075 -0.02859,-0.22902 -0.08304,-0.26264 -0.05444,-0.0337 -0.099,0.004 -0.099,0.0846 0,0.0801 -0.06556,0.14569 -0.145691,0.14569 -0.08014,0 -0.121532,-0.0392 -0.09195,-0.087 0.02958,-0.0478 0.0047,-0.11743 -0.05572,-0.15462 -0.06023,-0.0372 -0.08712,-0.0295 -0.05991,0.017 0.02722,0.0465 0.01558,0.16863 -0.02575,0.27145 -0.06121,0.15214 -0.07636,0.12937 -0.08171,-0.12235 -0.0037,-0.18104 -0.04537,-0.28535 -0.100099,-0.25152 -0.0514,0.0318 -0.09473,-0.0184 -0.09636,-0.11134 -0.0026,-0.16036 -0.0094,-0.16064 -0.127191,-0.006 -0.06829,0.09 -0.182612,0.16036 -0.254052,0.15616 -0.09489,-0.005 -0.09834,-0.02 -0.01301,-0.0545 0.241001,-0.0973 0.10599,-0.20978 -0.140184,-0.11685 -0.206845,0.0781 -0.234319,0.074 -0.140299,-0.021 0.06426,-0.0649 0.113501,-0.18318 0.109462,-0.26286 -0.0042,-0.0812 -0.02665,-0.0977 -0.0513,-0.0376 -0.05035,0.12292 -0.595541,-0.10722 -0.595541,-0.25141 0,-0.0461 -0.07358,-0.0573 -0.163535,-0.025 -0.08997,0.0323 -0.132369,0.0243 -0.09426,-0.0177 0.03813,-0.042 0.03346,-0.12238 -0.01023,-0.17851 -0.04375,-0.0561 -0.106247,-0.24314 -0.138972,-0.4156 -0.06251,-0.32937 -0.398846,-0.757 -0.59764,-0.75963 -0.06425,-0.001 -0.110244,0.03 -0.102082,0.0685 0.03079,0.14555 -0.131671,0.39368 -0.221458,0.33818 -0.06006,-0.0371 -0.06115,-0.0788 -0.0026,-0.11628 0.04999,-0.0321 0.122439,-0.15936 0.161002,-0.2828 0.0587,-0.18794 0.04385,-0.21436 -0.09129,-0.16254 -0.112321,0.0431 -0.146667,0.0237 -0.113097,-0.0638 0.06293,-0.16399 -0.219848,-0.16471 -0.383556,-0.001 -0.144962,0.14496 -0.336413,0.1687 -0.251414,0.0312 0.03179,-0.0514 -0.0079,-0.0935 -0.08799,-0.0935 -0.08014,0 -0.145691,0.0393 -0.145691,0.0872 0,0.0479 -0.122817,0.0837 -0.272998,0.0795 -0.256003,-0.007 -0.567264,0.19189 -0.56889,0.36407 -4.04e-4,0.0422 -0.105571,0.12537 -0.233685,0.18479 -0.26448,0.12267 -0.318295,0.002 -0.06937,-0.15561 0.111665,-0.0708 0.119061,-0.0924 0.02334,-0.0686 -0.07711,0.0191 -0.181862,0.12724 -0.232909,0.24028 -0.05103,0.11306 -0.145072,0.1855 -0.208901,0.16101 -0.06383,-0.0245 -0.163304,0.0437 -0.221017,0.15153 -0.08402,0.15699 -0.121233,0.17028 -0.186882,0.0666 -0.05792,-0.0915 -0.08248,-0.0492 -0.08347,0.14393 l -0.0016,0.27333 0.234346,-0.22025 c 0.229766,-0.21586 0.237068,-0.21662 0.374083,-0.0396 0.0953,0.12312 0.123462,0.13326 0.08854,0.0319 -0.02817,-0.0817 0.01374,-0.20254 0.09317,-0.26848 0.07945,-0.0659 0.144479,-0.0871 0.144479,-0.0471 0,0.04 0.08027,-7e-5 0.1784,-0.0889 0.217598,-0.19693 1.262182,-0.28998 1.191639,-0.10616 -0.02407,0.0627 0.01133,0.11408 0.07863,0.11408 0.06731,0 0.100745,-0.0565 0.07422,-0.12565 -0.03257,-0.0849 4.93e-4,-0.10702 0.102308,-0.0679 0.08283,0.0318 0.150648,0.0874 0.150648,0.12367 0,0.10259 -0.537593,0.47496 -0.685738,0.47496 -0.175558,0 -0.374388,0.24642 -0.298212,0.36968 0.03315,0.0537 -0.007,0.0976 -0.08931,0.0976 -0.217419,0 -0.549016,0.33767 -0.465046,0.47353 0.04815,0.0779 0.113417,0.0318 0.206588,-0.14603 0.105901,-0.20212 0.154566,-0.2311 0.218484,-0.13016 0.04521,0.0714 0.0859,0.0878 0.0903,0.0363 0.0042,-0.0514 0.04254,-0.009 0.08479,0.0935 l 0.07686,0.18699 0.07169,-0.18699 c 0.08411,-0.21921 0.415714,-0.56292 0.415714,-0.43091 0,0.0497 -0.05258,0.14603 -0.116842,0.21396 -0.06425,0.0679 -0.176486,0.23911 -0.249426,0.38048 -0.07295,0.14137 -0.170086,0.25703 -0.21584,0.25703 -0.04574,0 -0.05721,-0.042 -0.02544,-0.0934 0.03179,-0.0514 0.02187,-0.0935 -0.02192,-0.0935 -0.0438,0 -0.119853,0.13665 -0.169038,0.30372 -0.0492,0.16707 -0.13456,0.30383 -0.189745,0.30383 -0.139402,0 -0.881091,0.73972 -0.881091,0.87878 0,0.0622 -0.03357,0.0928 -0.07456,0.0675 -0.04102,-0.0253 -0.135567,-0.007 -0.210223,0.0398 -0.112593,0.0712 -0.10782,0.0863 0.02785,0.0873 0.08996,5.2e-4 0.16353,0.0422 0.16353,0.0919 0,0.0498 -0.06308,0.0664 -0.140184,0.0368 -0.08878,-0.0341 -0.140189,0.001 -0.140189,0.0964 0,0.17523 -0.18342,0.20678 -0.194366,0.0335 -0.0047,-0.072 -0.02832,-0.063 -0.06189,0.0233 -0.05918,0.15218 -0.305449,0.36617 -0.426949,0.37089 -0.0416,0.002 -0.05344,-0.0329 -0.02633,-0.0769 0.02712,-0.0439 -0.05582,-0.12772 -0.184459,-0.18633 -0.190092,-0.0866 -0.243981,-0.0804 -0.287532,0.033 -0.09323,0.24295 -0.226362,0.15079 -0.169588,-0.11739 0.04537,-0.21423 0.03703,-0.22981 -0.04967,-0.0935 -0.0572,0.0899 -0.177624,0.16364 -0.267595,0.16364 -0.08998,0 -0.213381,0.0497 -0.274209,0.11056 -0.190417,0.19041 -0.218411,0.0226 -0.03556,-0.21319 0.174241,-0.22465 0.241463,-0.58689 0.09173,-0.49435 -0.04369,0.027 -0.05833,0.0833 -0.03247,0.1251 0.02586,0.0418 -0.02848,0.17563 -0.120803,0.29733 -0.09232,0.12171 -0.173491,0.31916 -0.180383,0.43884 -0.01206,0.20957 -0.0042,0.21215 0.2154,0.0683 0.289268,-0.18953 0.764264,-0.1067 0.59026,0.10296 -0.06102,0.0735 -0.163887,0.11346 -0.228503,0.0887 -0.06462,-0.0248 -0.140697,0.0153 -0.169042,0.0892 -0.02832,0.0739 -0.0994,0.13435 -0.157913,0.13435 -0.06025,0 -0.0808,-0.0666 -0.04747,-0.15351 0.0492,-0.12828 0.03556,-0.13401 -0.08347,-0.0352 -0.07828,0.065 -0.142392,0.21109 -0.142392,0.32475 0,0.12038 -0.05783,0.20659 -0.138642,0.20659 -0.0929,0 -0.109645,-0.035 -0.05067,-0.10605 0.108298,-0.13048 0.01484,-0.53572 -0.106268,-0.46086 -0.05156,0.0318 -0.04243,0.10806 0.02213,0.18588 0.07866,0.0948 0.07994,0.13182 0.0047,0.13182 -0.0577,0 -0.110197,-0.042 -0.116622,-0.0935 -0.0065,-0.0514 -0.01694,-0.13196 -0.02334,-0.17906 -0.03016,-0.22105 -0.140126,-0.17613 -0.235001,0.096 -0.05758,0.16518 -0.08343,0.32153 -0.05749,0.34745 0.02591,0.0259 0.04715,-0.002 0.04715,-0.0619 0,-0.0599 0.04941,-0.10902 0.109792,-0.10902 0.06037,0 0.01096,0.10518 -0.109792,0.23368 -0.274367,0.29206 -0.521699,0.32293 -0.373869,0.0467 0.05502,-0.10281 0.0766,-0.18688 0.04789,-0.18688 -0.02869,0 0.01747,-0.10642 0.102743,-0.23654 0.08526,-0.13012 0.133559,-0.25817 0.107265,-0.28445 -0.02628,-0.0263 -0.136113,0.0907 -0.244034,0.26 -0.452708,0.71003 -0.642458,0.93945 -1.027336,1.24263 -0.223242,0.17585 -0.486052,0.34513 -0.584092,0.37629 -0.200157,0.0635 -0.235554,0.19631 -0.06728,0.2524 0.07143,0.0238 0.03809,0.1098 -0.09349,0.24139 -0.112449,0.11244 -0.204389,0.26242 -0.204389,0.33323 0,0.0708 -0.06308,0.18115 -0.140186,0.24513 -0.104471,0.0867 -0.140187,0.0882 -0.140187,0.006 0,-0.0607 -0.04857,-0.0805 -0.10792,-0.0438 -0.06739,0.0417 -0.08255,0.0256 -0.0403,-0.0428 0.0372,-0.0604 0.10676,-0.0852 0.154612,-0.0556 0.09239,0.0571 0.113901,-0.0341 0.105388,-0.44798 -0.0029,-0.14137 0.03377,-0.25703 0.0816,-0.25703 0.04783,0 0.0765,0.0316 0.06365,0.0701 -0.01285,0.0385 0.018,0.07 0.06861,0.07 0.05061,0 0.1039,-0.18169 0.118382,-0.40371 0.01666,-0.2555 -0.0086,-0.3821 -0.06872,-0.34491 -0.05224,0.0323 -0.09493,0.12066 -0.09493,0.19635 0,0.0757 -0.06308,0.16176 -0.140186,0.19139 -0.07711,0.0296 -0.140187,0.10789 -0.140187,0.174 0,0.0661 -0.06782,0.14612 -0.150648,0.17796 -0.107768,0.0413 -0.13514,0.0176 -0.09636,-0.0835 0.02981,-0.0777 0.01345,-0.14129 -0.03634,-0.14129 -0.04979,0 -0.09052,0.0607 -0.09052,0.1349 0,0.16831 -0.371754,0.43827 -0.496985,0.36087 -0.05383,-0.0333 -0.06315,-0.009 -0.02214,0.0569 0.03885,0.0626 0.129389,0.0917 0.201195,0.0642 0.07372,-0.0283 0.194312,0.0472 0.276959,0.17333 0.134986,0.20601 0.131705,0.25113 -0.0424,0.58112 -0.223685,0.42395 -0.253842,0.35303 -0.0577,-0.13589 l 0.139415,-0.34755 -0.215841,0.26066 c -0.144977,0.17507 -0.267529,0.2408 -0.373096,0.20031 -0.116167,-0.0446 -0.157145,-0.01 -0.157145,0.13369 0,0.14526 0.04053,0.17835 0.16122,0.13204 0.130289,-0.05 0.120999,-0.0109 -0.04812,0.20417 -0.233567,0.29694 -0.20629,0.42635 0.04824,0.22905 0.158301,-0.12271 0.15835,-0.11986 0.0022,0.0641 -0.18893,0.22256 -0.218465,0.74422 -0.04669,0.82438 0.09346,0.0436 0.09346,0.0656 0,0.10913 -0.06426,0.03 -0.11684,0.13326 -0.11684,0.2295 l 1.1e-4,-1.1e-4 c 0,0.16234 0.02571,0.16588 0.356027,0.0494 0.418203,-0.14755 2.152642,-1.01021 2.977285,-1.48082 1.457492,-0.83177 3.116469,-2.29508 4.384982,-3.86774 0.379732,-0.47078 0.911901,-1.05171 1.182612,-1.29097 0.487138,-0.43054 1.45734,-0.98406 1.724746,-0.98406 0.07615,0 0.369331,0.22083 0.651597,0.49071 0.282266,0.26988 0.625754,0.54853 0.763263,0.61922 0.137503,0.0707 0.313055,0.18244 0.390165,0.24832 0.205549,0.17566 0.913259,0.35842 1.448775,0.37431 0.782066,0.0231 2.058347,0.3827 2.757151,0.7767 0.231319,0.13042 0.665969,0.42349 0.965885,0.65127 0.454985,0.34553 0.534136,0.44712 0.478043,0.61294 -0.03698,0.10932 -0.08616,0.4146 -0.109352,0.67847 -0.03698,0.42081 -0.01558,0.49835 0.173664,0.63089 0.299559,0.20983 0.50171,0.18895 0.670978,-0.0694 0.25957,-0.39618 0.454125,-0.54822 0.562622,-0.43972 0.250218,0.25021 1.162308,-0.0452 1.049247,-0.33985 -0.02769,-0.0722 -0.01327,-0.10823 0.03215,-0.0802 0.09805,0.0606 0.195751,-0.16241 0.195468,-0.44622 -1.05e-4,-0.11146 -0.162025,-0.51802 -0.359885,-0.90356 -0.197854,-0.38555 -0.363393,-0.84048 -0.36759,-1.01093 -0.0042,-0.17044 -0.03682,-0.44387 -0.07224,-0.60755 l -0.06431,-0.29755 0.408775,0.42056 c 0.224805,0.23133 0.506032,0.48364 0.624946,0.56075 0.118914,0.0771 0.321841,0.35052 0.450952,0.60754 0.129106,0.25703 0.310464,0.55143 0.403053,0.65424 0.09259,0.10282 0.219743,0.40748 0.282575,0.67704 0.07982,0.34246 0.19807,0.56071 0.392588,0.72439 0.291073,0.24493 0.714524,0.3072 0.890674,0.13105 0.07013,-0.0701 0.156071,-0.0734 0.268592,-0.0104 0.20235,0.11324 0.655237,-0.0251 0.731324,-0.22333 0.0289,-0.0753 -0.03084,-0.35625 -0.132699,-0.62429 -0.101883,-0.26803 -0.185198,-0.60738 -0.185224,-0.75401 -2.6e-5,-0.14663 -0.120461,-0.63027 -0.2676,-1.0748 -0.147134,-0.44452 -0.296391,-0.92896 -0.331692,-1.07645 -0.06307,-0.26353 -0.0556,-0.26078 0.431131,0.16111 0.272394,0.23611 0.65562,0.594 0.851691,0.7952 0.632164,0.64869 1.559559,0.63426 1.559559,-0.0242 0,-0.21346 -0.389331,-0.66399 -0.488282,-0.56504 -0.02958,0.0296 -0.08551,0.003 -0.124327,-0.0604 -0.04506,-0.0729 -0.03163,-0.0899 0.03735,-0.0474 0.162119,0.1002 0.129824,-0.0903 -0.03908,-0.23049 -0.08086,-0.0671 -0.225293,-0.27555 -0.321012,-0.46317 -0.09572,-0.18763 -0.467223,-0.6809 -0.825481,-1.09617 -0.358254,-0.41526 -0.67882,-0.8417 -0.712494,-0.94772 -0.08907,-0.28065 -0.504422,-0.54205 -1.034933,-0.65138 -0.456491,-0.0941 -2.27605,-0.71745 -2.775321,-0.9508 -0.140372,-0.0656 -0.277813,-0.1904 -0.305371,-0.27728 -0.02759,-0.0869 -0.144631,-0.24667 -0.26011,-0.35515 -0.188875,-0.17745 -0.705224,-0.43203 -0.840566,-0.43774 z m 21.522422,1.11202 c -0.1818,-0.002 -0.61467,0.12039 -1.16852,0.33665 -0.35983,0.14051 -0.79295,0.28544 -0.96247,0.32211 -0.24675,0.0533 -0.28708,0.092 -0.20229,0.19414 v 1.1e-4 c 0.0691,0.0833 0.1599,0.0998 0.26143,0.0477 0.55151,-0.2829 1.55262,-0.67798 1.83311,-0.72351 0.18259,-0.0296 0.33201,-0.0894 0.33201,-0.13281 0,-0.0293 -0.0327,-0.0437 -0.0933,-0.0444 z m -35.184381,0.0896 c -0.144112,0.002 -1.044804,0.28437 -1.406934,0.44589 -0.136889,0.0611 -0.0861,0.0735 0.189856,0.0464 0.374104,-0.0368 1.315033,-0.40905 1.235358,-0.48873 -0.0026,-0.003 -0.0087,-0.004 -0.01831,-0.004 z m 42.802901,0.01 c -0.11571,0.004 -0.23511,0.0638 -0.23511,0.15197 0,0.0459 0.0422,0.0835 0.0935,0.0835 0.0514,0 0.0935,-0.0407 0.0935,-0.0905 0,-0.0498 0.0736,-0.0647 0.16353,-0.0331 0.12205,0.043 0.13784,0.0297 0.0623,-0.0526 -0.0402,-0.0439 -0.10831,-0.0616 -0.17774,-0.0593 z m -44.866387,0.70269 c -0.05265,-1e-5 -0.427795,0.18928 -0.833628,0.42056 -0.405833,0.23127 -1.00418,0.55021 -1.329624,0.70875 -0.325446,0.15855 -0.591691,0.32553 -0.591691,0.371 0,0.10506 0.278669,0.008 0.484761,-0.16837 0.08672,-0.0743 0.202383,-0.10757 0.257027,-0.0738 0.05464,0.0338 0.09944,0.0187 0.09944,-0.0336 0,-0.0522 0.452046,-0.34912 1.004651,-0.65975 0.552603,-0.31063 0.961714,-0.56481 0.909063,-0.56482 z m 39.122487,1.1e-4 c -0.0544,0 -0.099,0.042 -0.099,0.0934 0,0.0514 0.0185,0.0935 0.0412,0.0935 0.0227,0 0.0672,-0.0421 0.099,-0.0935 0.0318,-0.0514 0.0133,-0.0934 -0.0412,-0.0934 z m -4.49731,0.002 c -0.0801,-10e-4 -0.39563,0.15038 -0.70104,0.33676 -0.45365,0.27685 -0.70915,0.3593 -1.39636,0.45073 -0.46265,0.0616 -0.98849,0.18013 -1.1684,0.26352 -0.46576,0.21587 -1.31138,0.34876 -2.21909,0.34876 -0.50142,0 -0.76185,0.0339 -0.72461,0.0942 0.0897,0.1451 2.67335,0.0118 2.85372,-0.14724 0.27314,-0.24082 0.79988,-0.39994 1.42489,-0.43036 0.34513,-0.0168 0.62761,-0.0529 0.6277,-0.0802 1.1e-4,-0.0273 0.11588,-0.10174 0.25724,-0.16541 0.49583,-0.22331 1.19017,-0.66866 1.04595,-0.67075 z m -28.775885,0.27817 c 0.05443,0 0.07296,0.042 0.04117,0.0934 -0.03179,0.0514 -0.07634,0.0935 -0.099,0.0935 -0.02266,0 -0.04117,-0.0421 -0.04117,-0.0935 0,-0.0514 0.04458,-0.0934 0.099,-0.0934 z m 33.226395,1.1e-4 c -0.0227,0 -0.0672,0.0421 -0.099,0.0935 -0.0318,0.0514 -0.0132,0.0934 0.0413,0.0934 0.0545,0 0.099,-0.0419 0.099,-0.0934 0,-0.0514 -0.0186,-0.0935 -0.0413,-0.0935 z m 2.117,0.16353 c -0.0411,-0.003 -0.0794,0.004 -0.11155,0.0207 -0.31463,0.16435 -1.39888,0.65677 -1.44614,0.65677 -0.0279,0 -0.0507,-0.0623 -0.0507,-0.13842 0,-0.0761 -0.10486,-0.1647 -0.23302,-0.1969 -0.12816,-0.0322 -0.2097,-0.096 -0.18138,-0.14195 0.0284,-0.046 -0.014,-0.0835 -0.0941,-0.0835 -0.18616,0 -0.18406,0.0194 0.0463,0.42948 0.16088,0.28642 0.17806,0.40735 0.10573,0.74652 -0.0474,0.22259 -0.0705,0.50123 -0.0511,0.61911 0.0204,0.12403 -0.0464,0.3107 -0.1588,0.44303 -0.16244,0.19127 -0.20976,0.20647 -0.28929,0.0934 -0.0733,-0.10432 -0.0846,-0.0872 -0.049,0.0751 0.031,0.14142 0.003,0.21034 -0.0873,0.21034 -0.0734,0 -0.18125,0.1048 -0.23962,0.23291 -0.0784,0.17212 -0.13674,0.20753 -0.22334,0.13567 -0.0813,-0.0676 -0.13572,-0.0674 -0.17773,5.2e-4 -0.0333,0.0539 -0.11759,0.098 -0.18721,0.098 -0.0924,0 -0.10796,-0.0693 -0.0579,-0.25658 0.0678,-0.25376 -0.0623,-0.77152 -0.19394,-0.77152 -0.0375,0 -0.0266,0.11905 0.0241,0.26462 0.0862,0.24742 -0.0133,0.76348 -0.14723,0.76348 -0.0274,0 -0.1716,-0.10854 -0.32046,-0.24117 -0.29163,-0.25985 -0.41964,-0.56575 -0.27432,-0.65556 0.0496,-0.0306 -0.0656,-0.1391 -0.25581,-0.24106 -0.27729,-0.14862 -0.36092,-0.16092 -0.42199,-0.0621 -0.0446,0.0722 -0.02,0.20886 0.0594,0.33004 0.14941,0.22804 0.0755,0.55584 -0.17168,0.76095 -0.13567,0.1126 -0.76366,0.23485 -1.12832,0.21959 -0.19071,-0.008 -0.30726,0.0898 -0.53917,0.45293 -0.0831,0.1301 -0.34888,0.33826 -0.5907,0.46263 -0.24181,0.12437 -0.49927,0.3112 -0.57208,0.41516 -0.0728,0.10417 -0.13237,0.15298 -0.13237,0.10892 0,-0.0441 -0.0897,0.0338 -0.19922,0.17311 -0.10956,0.13928 -0.30304,0.29279 -0.43002,0.34105 -0.15221,0.0579 -0.21246,0.13606 -0.17653,0.2296 0.0363,0.0947 -0.027,0.17287 -0.1904,0.23501 -0.27397,0.10415 -0.40085,0.0455 -0.24305,-0.11233 0.0758,-0.0758 0.0428,-0.16915 -0.12301,-0.34799 -0.12464,-0.13443 -0.22663,-0.33692 -0.22663,-0.45007 0,-0.23512 -0.14332,-0.36309 -0.23698,-0.21155 -0.0346,0.056 0.0463,0.31235 0.17983,0.56967 0.18271,0.35214 0.21994,0.51045 0.15065,0.63993 -0.0654,0.12225 -0.0585,0.18468 0.024,0.21584 0.15266,0.0576 -0.51725,0.34651 -0.79211,0.34127 -0.19511,-0.004 -0.18315,-0.0306 0.14074,-0.31683 l 0.35404,-0.31275 -0.18698,-0.49225 c -0.10286,-0.27072 -0.16401,-0.52947 -0.1359,-0.57495 0.0831,-0.1344 0.76816,-0.54246 0.91072,-0.54246 0.0722,0 0.2025,0.10874 0.28962,0.24172 0.0871,0.13297 0.18322,0.21697 0.21364,0.18654 0.0304,-0.0304 -0.0432,-0.15997 -0.16353,-0.28808 -0.12035,-0.1281 -0.20122,-0.24768 -0.17961,-0.26572 0.0216,-0.018 0.26014,-0.15102 0.53002,-0.29557 0.26987,-0.14456 0.49071,-0.29827 0.49071,-0.34149 0,-0.0432 0.0607,-0.0786 0.1349,-0.0786 0.16339,0 0.43924,-0.37019 0.36517,-0.49005 -0.0291,-0.0472 0.0393,-0.15028 0.15208,-0.22927 0.11278,-0.079 0.29423,-0.33854 0.40326,-0.57672 0.10904,-0.23818 0.21406,-0.46455 0.23347,-0.50315 0.0194,-0.0386 -0.0419,-0.0413 -0.13612,-0.006 -0.15046,0.0564 -0.15581,0.0453 -0.0439,-0.0923 0.0701,-0.0862 0.16464,-0.13361 0.21022,-0.10549 0.0456,0.0282 0.0829,-0.0427 0.0829,-0.15748 v -0.2088 l -0.23367,0.21948 c -0.12852,0.12073 -0.23368,0.27533 -0.23368,0.34347 0,0.0682 -0.0526,0.1248 -0.11685,0.12532 -0.0779,0.001 -0.0701,0.0317 0.0233,0.0921 0.12258,0.0792 0.12145,0.0905 -0.009,0.0921 -0.082,10e-4 -0.28175,0.0675 -0.44379,0.14833 -0.26819,0.13412 -0.30791,0.13413 -0.44248,-4.4e-4 -0.0813,-0.0813 -0.18653,-0.12403 -0.23379,-0.0948 -0.0473,0.0292 -0.0859,0.006 -0.0859,-0.0515 0,-0.0574 -0.0423,-0.0783 -0.0941,-0.0463 -0.0584,0.0361 -0.0406,0.11186 0.0467,0.19921 0.0775,0.0775 0.14085,0.201 0.14085,0.27443 0,0.0734 0.0511,0.13347 0.11354,0.13347 0.0739,0 0.0612,0.0523 -0.0363,0.14988 -0.21161,0.21161 -0.71112,0.0903 -0.84586,-0.20538 -0.0564,-0.12371 -0.13776,-0.22488 -0.18093,-0.22488 -0.11305,0 -0.10043,0.0456 0.11277,0.40691 l 0.19117,0.32409 -0.28434,0.0624 c -0.32549,0.0715 -0.93818,-0.0999 -0.94132,-0.2633 -10e-4,-0.0603 -0.0803,-0.21138 -0.17587,-0.33577 l -0.17389,-0.22608 -0.36153,0.173 c -0.22218,0.10632 -0.50551,0.16092 -0.73529,0.14162 -0.20562,-0.0173 -0.45805,-0.0334 -0.56086,-0.0355 -0.1028,-0.002 -0.23812,-0.0693 -0.30074,-0.1491 -0.10001,-0.12741 -0.1146,-0.12232 -0.11828,0.0419 -0.003,0.14004 -0.0244,0.15531 -0.0842,0.0609 -0.10618,-0.16754 -0.43782,-0.0937 -0.40734,0.0907 0.0487,0.29474 -0.828725,0.42659 -1.474657,0.22157 -0.137482,-0.0436 -0.237335,-0.01 -0.324206,0.10902 -0.142114,0.1948 -1.398684,0.41644 -1.709326,0.30152 -0.372798,-0.13791 -0.318384,-0.64356 0.06927,-0.64356 0.0883,0 0.388041,-0.12544 0.666132,-0.27872 0.278085,-0.15329 0.631843,-0.27968 0.786058,-0.28126 0.154214,-0.002 0.511702,-0.11273 0.794429,-0.24722 0.282733,-0.1345 0.74537,-0.32311 1.0281,-0.41913 l 0.51406,-0.17454 -0.40195,0.048 c -0.22106,0.0264 -0.62063,0.1709 -0.88792,0.32112 -0.277,0.15566 -0.707024,0.3008 -1.000026,0.33741 -0.282728,0.0353 -0.577136,0.11561 -0.654241,0.1784 -0.07711,0.0628 -0.378054,0.21069 -0.668775,0.32861 -0.346677,0.14061 -0.564679,0.29356 -0.633428,0.44446 -0.09379,0.20584 -0.06942,0.26342 0.231477,0.54719 0.298924,0.28193 0.393826,0.31716 0.853894,0.31716 0.284674,0 0.860037,-0.0816 1.278526,-0.18126 0.418484,-0.0997 1.034253,-0.22893 1.368383,-0.28721 0.33413,-0.0583 0.71386,-0.15808 0.84377,-0.22178 0.19204,-0.0942 0.29684,-0.0906 0.56074,0.0189 0.17853,0.0741 0.63793,0.14891 1.02084,0.16617 0.64987,0.0293 0.71758,0.0528 1.01721,0.35239 l 0.32089,0.32101 -0.2709,0.40338 c -0.17984,0.26779 -0.49031,0.53248 -0.92371,0.78749 -0.83298,0.49012 -0.97462,0.71677 -0.74729,1.19582 0.0912,0.19216 0.27593,0.40738 0.41054,0.47827 0.23765,0.12517 0.24498,0.15543 0.25317,1.04804 0.008,0.91912 0.26947,2.21134 0.55381,2.74162 0.16765,0.31267 0.55972,0.35652 0.83935,0.0938 0.14694,-0.13805 0.22603,-0.16474 0.25252,-0.0851 0.0605,0.1816 0.61641,0.13578 0.89639,-0.0739 0.23253,-0.17414 0.25464,-0.24675 0.26848,-0.8801 0.0118,-0.5424 0.0669,-0.78886 0.25703,-1.15013 0.13308,-0.25288 0.24345,-0.56828 0.24503,-0.70093 0.002,-0.16898 0.13202,-0.3516 0.43388,-0.60986 l 0.43091,-0.36858 -0.0748,0.46208 c -0.0846,0.52309 -0.085,0.58126 -0.006,1.163 0.0882,0.65309 0.14658,0.85308 0.23346,0.79938 0.044,-0.0272 0.0225,-0.35207 -0.048,-0.72185 -0.0705,-0.36978 -0.11834,-0.68198 -0.10627,-0.69378 0.0121,-0.0118 0.14697,0.003 0.29976,0.0319 0.24343,0.0467 0.25502,0.0622 0.0935,0.12532 -0.17266,0.0674 -0.17333,0.0725 -0.009,0.0786 0.1244,0.005 0.14949,0.0404 0.0867,0.12345 -0.10921,0.14436 -0.13835,0.55888 -0.0348,0.49489 0.10731,-0.0663 0.4106,0.2923 0.34161,0.40393 -0.0316,0.0511 -0.0167,0.1181 0.0329,0.14878 0.0524,0.0324 0.006,0.19903 -0.11112,0.3971 l -0.20141,0.34127 -0.077,-0.29722 c -0.0423,-0.16344 -0.1223,-0.29711 -0.17774,-0.29711 -0.0554,0 -0.0754,0.0665 -0.0442,0.14778 0.0312,0.0813 0.0568,0.22709 0.0568,0.32388 0,0.2855 0.32337,0.40037 0.65061,0.23114 0.36883,-0.19072 0.50183,-0.46116 0.43124,-0.87702 -0.1219,-0.71816 -0.0502,-1.20162 0.23985,-1.61605 0.0955,-0.13645 0.17366,-0.33131 0.17366,-0.433 0,-0.16244 0.0879,-0.19306 0.72351,-0.25262 0.69183,-0.0648 1.5197,-0.35044 1.5197,-0.5243 0,-0.0452 0.2839,-0.21085 0.63089,-0.36792 0.34698,-0.15706 0.79903,-0.44532 1.00465,-0.6407 0.20563,-0.19537 0.53429,-0.45096 0.73034,-0.5679 0.19605,-0.11695 0.46461,-0.38627 0.59675,-0.59852 0.31073,-0.49907 0.268,-0.46437 0.61493,-0.4994 0.56518,-0.0571 1.10387,-0.0334 1.68411,0.074 1.58126,0.29267 2.49268,0.35391 4.64543,0.31253 1.20802,-0.0232 2.56047,-0.0731 3.00536,-0.1109 0.40943,-0.0348 0.73485,-0.04 0.76777,-0.0139 l -0.52594,-1.5284 c -0.19112,0.17296 -0.45301,0.21513 -0.54632,0.088 -0.0311,-0.0423 -0.12272,-0.0108 -0.20362,0.0702 -0.1907,0.19071 -0.26892,0.18646 -0.23467,-0.0128 0.0366,-0.21283 -0.62208,-0.34186 -0.77912,-0.15262 -0.0573,0.0691 -0.1832,0.12554 -0.27971,0.12554 -0.29458,0 -0.19501,0.15795 0.10494,0.1665 0.15421,0.004 0.28037,-0.03 0.28037,-0.0763 0,-0.0463 0.07,-0.0574 0.1555,-0.0246 0.10458,0.0401 0.13341,0.0239 0.088,-0.0497 -0.0372,-0.0601 -0.0255,-0.10935 0.0259,-0.10935 0.14121,0 0.19498,0.13395 0.10946,0.27233 -0.0419,0.0678 -0.25681,0.13543 -0.4776,0.15043 -0.27244,0.0185 -0.44868,0.0889 -0.54853,0.21926 -0.11532,0.1505 -0.27089,0.19738 -0.71921,0.21705 -0.37616,0.0165 -0.62411,-0.0182 -0.72427,-0.10132 -0.11614,-0.0963 -0.15242,-0.0987 -0.15242,-0.01 0,0.0928 -0.0283,0.0928 -0.14018,0 -0.16935,-0.14056 -0.18753,0.004 -0.0234,0.18545 0.0726,0.0803 0.0207,0.0696 -0.13688,-0.0281 -0.3249,-0.20136 -0.41041,-0.19975 -0.24843,0.005 0.114,0.14392 0.0981,0.1426 -0.14317,-0.0117 -0.25358,-0.1621 -0.26729,-0.16264 -0.20813,-0.008 0.0555,0.14466 0.0441,0.1491 -0.0921,0.0361 -0.0854,-0.0709 -0.25798,-0.11541 -0.38345,-0.099 -0.13891,0.0182 -0.27888,-0.037 -0.3579,-0.14128 -0.14829,-0.19562 -0.17681,-0.34789 -0.0507,-0.26991 0.12078,0.0746 0.39156,-0.0444 0.32949,-0.14481 -0.0284,-0.046 -0.19396,-0.0837 -0.36781,-0.0837 -0.17385,0 -0.34331,-0.0441 -0.37662,-0.098 -0.042,-0.0681 -0.0978,-0.0673 -0.18204,0.003 -0.0905,0.0751 -0.19286,0.0407 -0.40184,-0.13512 -0.23448,-0.19733 -0.27818,-0.20929 -0.26737,-0.0729 0.008,0.1023 -0.0393,0.14939 -0.1273,0.12631 -0.0771,-0.0202 -0.22437,-0.0412 -0.32718,-0.0467 -0.30459,-0.0163 -0.36633,-0.22872 -0.12356,-0.4253 0.1455,-0.11782 0.23723,-0.1417 0.27971,-0.0729 0.0449,0.0726 0.10359,0.0688 0.2023,-0.0131 0.0764,-0.0635 0.16043,-0.0806 0.18666,-0.0381 0.0683,0.11046 0.93227,0.0793 0.9704,-0.035 0.0175,-0.0525 -0.095,-0.0955 -0.24998,-0.0955 -0.15498,0 -0.36771,-0.0778 -0.47276,-0.1729 -0.23609,-0.21366 -1.1072,-0.30186 -0.93527,-0.0947 0.0857,0.10328 0.0686,0.11838 -0.0881,0.0774 -0.10699,-0.028 -0.27312,-0.15092 -0.36924,-0.27311 -0.0961,-0.12219 -0.20678,-0.22212 -0.24591,-0.22212 -0.0391,0 0.005,0.0841 0.098,0.18688 0.093,0.10281 0.12369,0.18699 0.068,0.18699 -0.0556,0 -0.18391,-0.10517 -0.285,-0.23368 -0.10109,-0.12852 -0.24886,-0.23368 -0.32838,-0.23368 -0.0795,0 -0.17063,-0.0421 -0.20241,-0.0935 -0.0318,-0.0514 -0.16492,-0.0934 -0.2959,-0.0934 -0.17328,0 -0.22348,0.0382 -0.18435,0.14019 0.0366,0.0953 -0.005,0.14018 -0.13016,0.14018 -0.1012,0 -0.18402,0.0617 -0.18402,0.13721 0,0.077 -0.0555,0.11593 -0.12642,0.0888 -0.0695,-0.0267 -0.33233,0.079 -0.58409,0.23489 -0.30922,0.1914 -0.52566,0.26535 -0.66701,0.22774 -0.11509,-0.0306 -0.18615,-0.0929 -0.15803,-0.13843 0.0282,-0.0455 0.007,-0.0828 -0.0478,-0.0828 -0.10743,0 -0.13174,-0.27313 -0.0445,-0.50051 0.0299,-0.078 0.11413,-0.11908 0.18699,-0.0912 0.0816,0.0313 0.13248,-0.009 0.13248,-0.10483 0,-0.0856 0.0419,-0.1298 0.0934,-0.098 0.0514,0.0318 0.0944,-0.0183 0.0949,-0.11133 0.001,-0.12828 0.0206,-0.13895 0.0805,-0.0444 0.0635,0.1001 0.0903,0.095 0.13666,-0.0257 0.0424,-0.11056 0.12617,-0.13441 0.31672,-0.0902 0.24786,0.0575 0.25113,0.0539 0.0736,-0.0827 -0.0703,-0.0541 -0.14704,-0.0849 -0.21562,-0.0895 z m 10.9503,3.67645 0.003,0.008 c 0.002,-0.003 3.2e-4,-0.005 -0.003,-0.008 z m -9.14835,-3.62007 c -0.0275,-4.1e-4 -0.0457,0.0165 -0.0457,0.0481 0,0.0507 -0.0736,0.11141 -0.16353,0.1349 v -1.1e-4 c -0.11588,0.0303 -0.12269,0.0455 -0.0233,0.0522 0.21203,0.0142 0.41649,-0.13725 0.2904,-0.21518 -0.0213,-0.0132 -0.0413,-0.0197 -0.0578,-0.0199 z m -39.733674,0.3764 c -0.05725,-0.003 -0.129347,0.0293 -0.195027,0.10143 -0.04002,0.044 -0.0202,0.0497 0.04406,0.0126 0.0786,-0.0453 0.116727,0.001 0.116727,0.14084 0,0.24311 0.08307,0.19327 0.136003,-0.0816 0.02082,-0.10822 -0.02817,-0.16964 -0.101751,-0.17333 z m 9.4731,0.11332 c -0.02046,0.001 -0.04532,0.005 -0.07444,0.0127 -0.09896,0.0259 -0.179942,0.0772 -0.179942,0.11409 0,0.11388 0.26983,0.0738 0.316161,-0.047 0.02124,-0.0554 -4.51e-4,-0.0826 -0.06178,-0.0798 z m -8.508867,0.18401 c -0.02969,-0.007 -0.109006,0.0381 -0.234451,0.13986 -0.11958,0.0969 -0.189876,0.22085 -0.156155,0.27542 0.03708,0.06 0.136465,0.004 0.251414,-0.1425 0.133422,-0.16962 0.177366,-0.264 0.139192,-0.27278 z m -0.681327,0.041 c -0.02019,0 -0.03666,0.0631 -0.03666,0.14019 0,0.0771 0.04076,0.14019 0.09052,0.14019 0.04978,0 0.06626,-0.0631 0.03666,-0.14019 -0.02958,-0.0771 -0.07031,-0.14019 -0.09052,-0.14019 z m 39.399998,0.0958 c 0.02,0.005 0.0935,0.065 0.21738,0.1795 0.19167,0.17715 0.34854,0.33489 0.34854,0.35052 0,0.10386 -0.27012,-0.12672 -0.51428,-0.43895 -0.0505,-0.0646 -0.0673,-0.0947 -0.0517,-0.0911 z m -72.052987,0.0169 v 20.97346 h 1.448006 v -9.34591 h 2.603416 c 0.8678,0 1.589294,0.21943 2.164576,0.65821 0.575283,0.42902 1.150564,1.27736 1.725847,2.54494 l 2.793598,6.14276 h 1.638079 l -3.115378,-6.68402 c -0.789795,-1.68684 -1.599083,-2.69598 -2.42788,-3.0275 v -0.0585 c 1.560089,-0.29251 2.774076,-0.9458 3.641875,-1.95985 0.867799,-1.01406 1.301653,-2.27679 1.301653,-3.78812 0,-1.63809 -0.531329,-2.95445 -1.594139,-3.94901 -1.05306,-1.0043 -2.505951,-1.50648 -4.358555,-1.50648 z m 14.758674,0 v 20.97346 h 10.281957 v -1.3163 h -8.834061 v -8.59995 h 7.751773 v -1.31641 h -7.751773 v -8.40987 h 8.351392 v -1.33095 z m 17.451729,0.1175 c -0.03367,-0.002 -0.09068,0.0157 -0.154944,0.0501 -0.102811,0.055 -0.186876,0.14096 -0.186876,0.19095 0,0.0504 0.08333,0.0389 0.186876,-0.0258 0.102812,-0.0642 0.186987,-0.15009 0.186987,-0.19095 0,-0.0153 -0.01185,-0.0233 -0.03205,-0.0243 z m 0.499738,0.14371 c -0.0056,-0.003 -0.05327,0.037 -0.148335,0.11706 -0.107097,0.0902 -0.194807,0.22683 -0.194807,0.30372 0,0.0769 0.03855,0.13975 0.08567,0.13975 0.0471,0 0.06667,-0.0525 0.04338,-0.11673 -0.02329,-0.0643 0.02575,-0.20102 0.109022,-0.30383 0.0739,-0.0913 0.1106,-0.13703 0.105056,-0.13997 z m 38.582776,0.0953 c 0.0125,5.2e-4 0.0162,0.0312 0.0175,0.0915 0.002,0.10944 0.0197,0.1136 0.0797,0.0189 0.0613,-0.0967 0.10161,-0.0915 0.19877,0.0255 0.0671,0.0808 0.0949,0.17388 0.0619,0.20692 -0.0331,0.0331 -0.06,0.008 -0.06,-0.0545 0,-0.063 -0.0427,-0.0881 -0.095,-0.0558 -0.0523,0.0323 -0.0708,0.0979 -0.0412,0.14569 v 1.1e-4 c 0.0716,0.11588 0.0283,0.10556 -0.16078,-0.0382 -0.10751,-0.0817 -0.13005,-0.16165 -0.0716,-0.25405 0.0367,-0.0581 0.0582,-0.0869 0.0707,-0.0861 z m 2.3628,0 c 0.13705,0.002 0.29237,0.0505 0.36516,0.13821 h -1.1e-4 c 0.095,0.11444 0.0896,0.14018 -0.0297,0.14018 -0.0804,0 -0.17052,-0.0394 -0.20031,-0.0877 -0.0298,-0.048 -0.13862,-0.0715 -0.24172,-0.0517 -0.10308,0.0198 -0.16276,-0.004 -0.1327,-0.0525 0.0372,-0.0602 0.13281,-0.0877 0.2394,-0.0866 z m -2.88126,0.10968 c 0.0129,0.004 0.0354,0.056 0.0765,0.15891 0.0915,0.22893 0.0725,0.33959 -0.0391,0.22795 -0.0343,-0.0343 -0.0595,-0.14993 -0.0564,-0.25702 0.003,-0.0895 0.006,-0.13377 0.0189,-0.12984 z m 1.12502,0.023 c 0.0378,-0.004 0.12316,0.0549 0.20482,0.14514 0.19875,0.21957 0.16662,0.23646 -0.0861,0.0453 -0.099,-0.0749 -0.15836,-0.15803 -0.13182,-0.18457 0.003,-0.003 0.008,-0.005 0.0131,-0.006 z m 3.20171,0.0522 c -0.0227,0 -0.0672,0.042 -0.099,0.0935 -0.0317,0.0514 -0.0133,0.0934 0.0412,0.0934 0.0545,0 0.099,-0.0419 0.099,-0.0934 0,-0.0514 -0.0185,-0.0935 -0.0412,-0.0935 z m 0.26099,0.0167 c -0.0797,0.002 -0.11047,0.0269 -0.0823,0.0726 0.0332,0.0537 0.17011,0.0977 0.30416,0.0977 0.2966,0 0.20446,-0.11927 -0.12631,-0.16353 -0.0371,-0.005 -0.069,-0.007 -0.0956,-0.007 z m 0.62142,0.0768 c -0.0514,0 -0.0935,0.0419 -0.0935,0.0934 0,0.0514 0.0421,0.0935 0.0935,0.0935 0.0514,0 0.0934,-0.042 0.0934,-0.0935 0,-0.0514 -0.0419,-0.0934 -0.0934,-0.0934 z m 0.56075,0.0114 c -0.0593,0 -0.11855,0.006 -0.16353,0.0176 -0.09,0.0235 -0.0164,0.0427 0.16353,0.0427 0.17992,0 0.25349,-0.0192 0.16353,-0.0427 -0.045,-0.0118 -0.10424,-0.0176 -0.16353,-0.0176 z m -44.836766,0.0328 c -0.0129,-0.001 -0.02549,0.002 -0.03724,0.01 -0.04684,0.0289 -0.06108,0.0918 -0.03152,0.13963 0.08789,0.14221 0.228356,0.0988 0.17025,-0.0526 -0.02208,-0.0576 -0.06282,-0.0941 -0.101532,-0.0965 z m 38.761616,0.0493 c 0.0514,0 0.0935,0.0631 0.0935,0.14018 0,0.0771 -0.0421,0.14019 -0.0935,0.14019 -0.0514,0 -0.0935,-0.0631 -0.0935,-0.14019 0,-0.0771 0.0421,-0.14018 0.0935,-0.14018 z m -36.62479,0.001 c -0.03866,-1e-5 -0.128413,0.0425 -0.252294,0.13621 -0.245156,0.18542 -0.354582,0.17746 -0.279271,-0.0204 0.05056,-0.1328 0.03965,-0.14115 -0.05781,-0.0444 -0.09288,0.0922 -0.09535,0.15854 -0.01102,0.29359 0.05994,0.096 0.08344,0.2001 0.05219,0.23136 -0.11209,0.11209 -0.293837,0.0538 -0.332463,-0.1067 -0.02166,-0.09 -0.02334,0.005 -0.0037,0.21022 l 0.03556,0.37387 -0.194476,-0.32707 -0.194587,-0.32717 0.04647,0.35514 c 0.04175,0.31881 0.02785,0.34927 -0.135342,0.29744 -0.138909,-0.0441 -0.181815,-0.0134 -0.181815,0.13007 0,0.10324 0.04207,0.21367 0.0935,0.24546 0.0514,0.0318 0.0935,-0.008 0.0935,-0.088 0,-0.0801 0.06965,-0.14569 0.154718,-0.14569 0.138505,0 0.136748,0.0198 -0.01652,0.18919 -0.116743,0.12902 -0.201574,0.15875 -0.26683,0.0935 -0.134057,-0.13405 -0.245239,-0.11911 -0.245239,0.0331 0,0.0708 -0.06265,0.18073 -0.139198,0.24425 -0.07657,0.0635 -0.112158,0.15917 -0.07918,0.21254 v 2.2e-4 c 0.03824,0.0618 0.09715,0.0469 0.162538,-0.0412 0.140194,-0.18884 0.533522,-0.27829 0.681883,-0.15516 0.08169,0.0676 0.121684,0.0688 0.121684,0.004 0,-0.0534 -0.05014,-0.11384 -0.111445,-0.13424 -0.119004,-0.0397 0.452017,-1.00652 0.594445,-1.00652 0.04275,0 0.07775,-0.0601 0.07775,-0.13347 0,-0.0734 0.110789,-0.22053 0.246231,-0.32707 0.155552,-0.12235 0.190417,-0.1927 0.14074,-0.19271 z m 3.574482,0.12289 c 0.02544,-0.007 0.06311,0.0363 0.08974,0.10572 0.0632,0.16468 0.0093,0.1936 -0.08281,0.0445 -0.03388,-0.0548 -0.04154,-0.11977 -0.01705,-0.14426 0.0031,-0.003 0.0065,-0.005 0.01012,-0.006 z m 36.018558,0.009 c -0.0475,-0.005 -0.0368,0.0368 0.0237,0.14987 0.11596,0.21666 0.18578,0.23718 0.18578,0.0546 0,-0.0716 -0.064,-0.15473 -0.14228,-0.18478 -0.029,-0.0111 -0.0513,-0.018 -0.0672,-0.0197 z m 3.1069,0.0664 c -0.0423,0 -0.0847,0.007 -0.11684,0.0195 -0.0643,0.0259 -0.0117,0.0472 0.11684,0.0472 0.12852,0 0.1811,-0.0212 0.11684,-0.0472 -0.0322,-0.013 -0.0745,-0.0195 -0.11684,-0.0195 z m -45.10723,0.0184 c -0.0037,0.001 -0.007,0.003 -0.01002,0.006 -0.0245,0.0245 -0.01684,0.0894 0.01705,0.14426 0.09216,0.14913 0.146011,0.1202 0.08281,-0.0445 -0.02665,-0.0694 -0.06443,-0.11246 -0.08986,-0.10572 z m 12.616126,0.10914 c 0.04275,0.001 0.08058,0.0285 0.132038,0.0799 0.07422,0.0742 0.147805,0.30747 0.16353,0.51835 0.01574,0.21089 0.01033,0.38345 -0.01191,0.38345 -0.02224,0 -0.197487,-0.14762 -0.389504,-0.32806 l -0.34909,-0.32805 0.225969,-0.19029 c 0.1108,-0.0933 0.173973,-0.13645 0.228949,-0.13534 z m 25.564814,0.0474 c 0.0459,0 0.10992,0.069 0.14239,0.15351 0.0694,0.18076 0.0489,0.20939 -0.10902,0.15296 -0.13269,-0.0474 -0.1609,-0.30647 -0.0334,-0.30647 z m 0.72879,0.002 c 0.0612,-5.2e-4 0.13725,0.0406 0.16904,0.0919 0.0717,0.11604 0.0394,0.11604 -0.14018,0 -0.0843,-0.0544 -0.0957,-0.0914 -0.0289,-0.0919 z m 9.75458,0.006 c -0.0801,0.004 -0.0194,0.0653 0.13479,0.1359 0.36233,0.16591 0.41772,0.16415 0.19239,-0.006 -0.0998,-0.0755 -0.24704,-0.13381 -0.32718,-0.12961 z m -42.389394,0.0268 c 0.02701,0.002 0.04469,0.0229 0.04469,0.0588 0,0.0575 0.04207,0.0786 0.0935,0.0468 0.0514,-0.0318 0.09349,0.0123 0.09349,0.0979 0,0.10034 0.05014,0.13653 0.140189,0.10197 0.08691,-0.0334 0.140188,4.6e-4 0.140188,0.089 0,0.0786 0.03908,0.11873 0.08678,0.0892 0.04768,-0.0295 0.114571,0.0342 0.148665,0.14161 v 1.1e-4 c 0.100047,0.31524 0.01773,0.29006 -0.45712,-0.13974 -0.268854,-0.24336 -0.407794,-0.43102 -0.346997,-0.46858 0.02093,-0.0129 0.04039,-0.0183 0.0566,-0.017 z m -5.707342,0.059 c -0.05161,0.001 -0.134204,0.069 -0.20791,0.18699 -0.06421,0.10281 -0.08275,0.18688 -0.04118,0.18688 0.09737,0 0.299864,-0.20198 0.299864,-0.2991 0,-0.0516 -0.01983,-0.0753 -0.05077,-0.0748 z m 45.996476,0.10208 c -0.0386,-0.001 -0.0453,0.0246 -0.0156,0.0727 0.0378,0.0613 0.004,0.10561 -0.0804,0.10561 -0.0801,0 -0.1458,0.0618 -0.1458,0.13721 0,0.10298 0.0524,0.11777 0.21033,0.0594 0.23418,-0.0866 0.28082,-0.29762 0.0805,-0.3644 -0.0197,-0.007 -0.0361,-0.0101 -0.049,-0.0104 z m -0.66779,0.0229 c -0.0249,0.003 -0.0413,0.0225 -0.0413,0.0565 0,0.0544 0.042,0.099 0.0934,0.099 0.0514,0 0.0935,-0.0186 0.0935,-0.0413 0,-0.0227 -0.0421,-0.0672 -0.0935,-0.099 -0.0192,-0.0119 -0.0372,-0.0167 -0.0521,-0.0152 z m -75.885371,0.0103 h 3.919715 c 1.57959,0 2.793467,0.38033 3.641766,1.14088 0.848298,0.75078 1.27247,1.79408 1.27247,3.12991 0,1.46258 -0.47291,2.61314 -1.418714,3.45169 -0.936053,0.83855 -2.203563,1.25782 -3.802655,1.25782 h -3.612582 z m 75.254591,0.0622 c -0.0465,0 -0.0522,0.0276 -0.018,0.0829 0.0318,0.0514 0.14991,0.0906 0.26254,0.0869 0.19741,-0.006 0.19805,-0.009 0.0178,-0.0869 -0.12863,-0.0553 -0.21583,-0.0829 -0.26231,-0.0829 z m -0.98626,0.15087 c -0.013,4.5e-4 -0.0253,0.002 -0.0366,0.005 -0.22911,0.0593 -0.20369,0.18668 0.0468,0.23489 0.44548,0.0858 0.48326,0.0724 0.29667,-0.10561 -0.0866,-0.0826 -0.21571,-0.13741 -0.30691,-0.13424 z m 0.7235,0.0254 c -0.0514,0 -0.0675,0.0421 -0.0357,0.0935 0.0318,0.0514 0.0998,0.0935 0.15119,0.0935 0.0515,0 0.0675,-0.0421 0.0357,-0.0935 -0.0318,-0.0514 -0.0998,-0.0935 -0.1512,-0.0935 z m -45.751773,0.01 c -0.02124,-0.007 -0.01353,0.028 0.01815,0.11122 0.03509,0.0922 0.08741,0.14398 0.116182,0.11519 0.0288,-0.0288 0,-0.10421 -0.06387,-0.16761 -0.03462,-0.0343 -0.05774,-0.0543 -0.07048,-0.0588 z m 7.981047,0.0842 c 0.05135,0.004 0.117178,0.0552 0.149547,0.13953 0.02958,0.0771 0.113385,0.14018 0.18611,0.14018 0.07273,0 0.154167,0.0842 0.181039,0.18699 0.07086,0.27095 -0.161883,0.2359 -0.394131,-0.0593 -0.106541,-0.13545 -0.193706,-0.2827 -0.193706,-0.32718 0,-0.0588 0.03116,-0.0836 0.07114,-0.0802 z m 35.715066,0.0248 c 0.15163,0.008 0.46647,0.11022 0.55854,0.20229 0.13454,0.13458 0.12373,0.14573 -0.12168,0.12544 -0.22231,-0.0184 -0.51978,-0.19019 -0.51978,-0.30009 0,-0.0224 0.0324,-0.0302 0.0829,-0.0276 z m -5.25672,0.27938 c 0.0122,0.005 0.003,0.0386 -0.0213,0.10274 -0.0324,0.0844 -0.0964,0.15341 -0.14227,0.15341 -0.12019,0 -0.10339,-0.054 0.0588,-0.18864 0.0595,-0.0494 0.0927,-0.0726 0.10484,-0.0675 z m -24.932708,0.16254 c 0.0514,0 0.119543,0.0419 0.151308,0.0934 0.03179,0.0514 0.01563,0.0935 -0.03577,0.0935 -0.0514,0 -0.119434,-0.0421 -0.151199,-0.0935 -0.03179,-0.0514 -0.01573,-0.0934 0.03567,-0.0934 z m -12.694527,2.2e-4 c -0.05444,0 -0.099,0.042 -0.099,0.0934 0,0.0514 0.01852,0.0935 0.04118,0.0935 0.02266,0 0.06723,-0.0421 0.099,-0.0935 0.03179,-0.0514 0.01327,-0.0934 -0.04117,-0.0934 z m 8.312959,0.11827 c 0.03735,1.6e-4 0.06461,0.022 0.09151,0.0655 0.03818,0.0618 0.09625,0.10848 0.129064,0.10428 0.03278,-0.004 0.06186,0.0236 0.06453,0.0621 0.0026,0.0385 -0.06043,0.0836 -0.140184,0.10022 -0.08152,0.017 -0.14514,-0.0329 -0.14514,-0.11387 0,-0.0943 -0.05649,-0.12658 -0.163535,-0.0933 -0.139832,0.0435 -0.138243,0.0347 0.01112,-0.0606 0.06771,-0.0431 0.115253,-0.0646 0.15263,-0.0644 z m 7.657948,0.17774 c 0.007,0.001 0.01479,0.003 0.02334,0.006 0.06108,0.0204 0.127763,0.087 0.148114,0.14801 0.05607,0.1682 -0.13711,0.13287 -0.202297,-0.037 -0.03058,-0.0797 -0.01846,-0.12234 0.03084,-0.11651 z m 1.244935,0.036 c 0.108487,0.0208 0.252515,0.31708 0.192169,0.47793 -0.05307,0.14145 -0.04049,0.15184 0.0729,0.0599 0.114498,-0.0928 0.13519,-0.0697 0.124883,0.14019 -0.0068,0.1383 0.02791,0.27774 0.07719,0.30989 0.0493,0.0322 0.05349,0.0803 0.0095,0.10704 -0.09822,0.0596 -0.324826,-0.16997 -0.245796,-0.24899 0.03121,-0.0312 0.01463,-0.0567 -0.03677,-0.0567 -0.08988,0 -0.107726,-0.0569 -0.146798,-0.46726 -0.0098,-0.10281 -0.05336,-0.18698 -0.0968,-0.18698 -0.04338,0 -0.05109,-0.0452 -0.01694,-0.10032 0.01831,-0.0296 0.04149,-0.0395 0.06651,-0.0347 z m -16.102503,0.0459 c -0.01306,-0.006 -0.05062,0.0209 -0.120032,0.0774 -0.08674,0.0706 -0.157697,0.0937 -0.157697,0.0515 0,-0.0423 -0.05214,-0.0246 -0.115961,0.0392 -0.09242,0.0924 -0.08768,0.13398 0.02334,0.20417 v -1.1e-4 c 0.177776,0.11245 0.279606,0.11427 0.279606,0.005 0,-0.0472 0.02885,-0.16286 0.0642,-0.25703 0.02827,-0.0753 0.0396,-0.11425 0.02654,-0.12025 z m 44.777416,0.0893 c 0.0544,0 0.0731,0.0421 0.0413,0.0935 -0.0318,0.0514 -0.0764,0.0935 -0.099,0.0935 -0.0226,0 -0.0412,-0.0421 -0.0412,-0.0935 0,-0.0514 0.0445,-0.0935 0.0989,-0.0935 z m -29.461296,0.0175 c 0.01243,-0.003 0.0031,0.0464 -0.01741,0.14591 -0.02413,0.11566 -0.0057,0.21023 0.04086,0.21023 0.04658,0 0.08468,0.0421 0.08468,0.0935 0,0.10992 -0.09678,0.11827 -0.2491,0.0214 -0.08084,-0.0515 -0.07337,-0.12941 0.02916,-0.3024 0.06534,-0.11025 0.09935,-0.16559 0.111775,-0.16859 z m -2.934891,0.66823 c -0.02486,0.003 -0.04128,0.0224 -0.04128,0.0565 0,0.0545 0.04212,0.099 0.0935,0.099 0.0514,0 0.09349,-0.0186 0.09349,-0.0413 0,-0.0227 -0.04207,-0.0672 -0.09349,-0.099 -0.01925,-0.0119 -0.03729,-0.0167 -0.05219,-0.0152 z m 3.313821,0.0236 c 0.0037,-3.6e-4 0.0084,0.002 0.01353,0.007 0.04128,0.0427 0.10298,0.23049 0.13732,0.41737 h 2.2e-4 c 0.04207,0.22904 0.02444,0.36323 -0.05396,0.41164 -0.06408,0.0396 -0.09262,0.0336 -0.06354,-0.0134 0.02901,-0.0469 0.01951,-0.26711 -0.02114,-0.48927 -0.03562,-0.19439 -0.0396,-0.33113 -0.01243,-0.33368 z m -0.328718,0.0263 c 0.02801,0.002 0.0747,0.06 0.119266,0.15516 0.06037,0.12892 0.06933,0.2306 0.02035,0.2306 -0.10385,0 -0.206315,-0.23475 -0.160561,-0.3677 0.0042,-0.0128 0.01159,-0.0186 0.02093,-0.018 z m -3.245323,0.0534 c -0.03367,0.006 -0.09068,0.0408 -0.154938,0.0989 -0.102812,0.093 -0.186882,0.21124 -0.186882,0.26264 0,0.0514 0.08407,0.0173 0.186882,-0.0758 0.102811,-0.093 0.186986,-0.21108 0.186986,-0.26253 0,-0.0193 -0.01185,-0.0266 -0.03205,-0.0232 z m -13.031505,0.052 c 0.05471,0 0.04558,0.0594 -0.02145,0.14019 -0.06399,0.0771 -0.130868,0.14018 -0.148665,0.14018 -0.01778,0 -0.0081,-0.0631 0.02145,-0.14018 0.02958,-0.0771 0.09646,-0.14019 0.148665,-0.14019 z m 12.368017,0.0307 c -0.0149,-0.001 -0.03289,0.004 -0.05219,0.0162 -0.0514,0.0318 -0.09349,0.0998 -0.09349,0.15119 0,0.0515 0.04207,0.0676 0.09349,0.0358 0.0514,-0.0318 0.0935,-0.0999 0.0935,-0.15132 0,-0.0322 -0.01642,-0.0504 -0.04128,-0.0519 z m -14.832128,0.002 c -0.01983,-0.004 -0.06805,0.0385 -0.124657,0.11331 -0.07547,0.0998 -0.138558,0.221 -0.140184,0.26936 -0.0016,0.0484 0.05888,0.006 0.134346,-0.0935 0.07547,-0.0998 0.138563,-0.221 0.140189,-0.26936 4.09e-4,-0.0121 -0.0031,-0.0185 -0.0097,-0.0198 z m 31.843363,0.0749 c -0.004,0.001 -0.007,0.003 -0.0107,0.006 -0.0257,0.0257 -0.0196,0.11759 0.0138,0.20428 0.0332,0.0867 0.0815,0.13659 0.10726,0.11089 0.0257,-0.0257 0.0196,-0.11771 -0.0138,-0.20439 -0.0291,-0.0759 -0.0697,-0.12344 -0.0966,-0.11695 z m 3.33045,0.0796 c 0.076,0 0.28419,0.15777 0.46263,0.35063 0.17844,0.19286 0.46294,0.46721 0.63221,0.60964 0.2621,0.22053 0.28968,0.2807 0.18622,0.40536 -0.10089,0.12161 -0.0985,0.14319 0.0137,0.12708 0.28389,-0.0407 0.40659,0.0243 0.18182,0.0962 v -1.1e-4 c -0.12851,0.0412 -0.33873,0.0758 -0.46725,0.0769 -0.22075,0.002 -0.32114,-0.0202 -0.65424,-0.14349 -0.0771,-0.0285 -0.28745,-0.0506 -0.46737,-0.049 -0.41049,0.004 -0.91262,-0.29403 -0.95421,-0.56581 -0.0174,-0.1135 -0.0816,-0.19635 -0.14283,-0.18413 -0.0613,0.0122 -0.089,-0.0299 -0.0618,-0.0935 0.0563,-0.13178 1.06141,-0.6298 1.27104,-0.6298 z m -15.105562,0.0166 c 0.02974,-0.008 0.08463,0.0982 0.180273,0.32706 0.07901,0.18912 0.124956,0.38884 0.102082,0.4439 -0.02287,0.0551 -0.04469,0.0311 -0.04888,-0.0534 -0.0042,-0.0845 -0.06521,-0.17584 -0.135893,-0.20296 -0.07068,-0.0271 -0.128513,-0.1578 -0.128513,-0.29039 0,-0.14185 0.0078,-0.21773 0.03095,-0.22421 z m -18.017762,0.002 c 0.0098,-2.3e-4 0.01553,0.009 0.01553,0.0282 0,0.0514 -0.04081,0.15657 -0.09063,0.23368 -0.04983,0.0772 -0.09063,0.0981 -0.09063,0.0467 0,-0.0514 0.04081,-0.15657 0.09063,-0.23368 0.03116,-0.0482 0.05878,-0.0745 0.0751,-0.0749 z m 13.535539,0.0142 c -0.03053,-0.006 -0.09309,0.0367 -0.149987,0.10528 -0.07371,0.0888 -0.08081,0.1425 -0.01883,0.1425 0.112955,0 0.244647,-0.17734 0.179832,-0.24216 -0.0031,-0.003 -0.0067,-0.005 -0.01102,-0.006 z m 20.715555,0.004 c 0.0283,4.8e-4 0.0619,0.008 0.10274,0.0206 0.1097,0.0343 0.32024,0.16327 0.46781,0.28665 0.14756,0.12339 0.41037,0.28378 0.58409,0.35636 0.34874,0.14571 0.41551,0.40226 0.16892,0.64884 -0.0808,0.0808 -0.15435,0.14337 -0.16353,0.13865 -0.35117,-0.17377 -0.80858,-0.47129 -1.06158,-0.69047 -0.27695,-0.23994 -0.31632,-0.32196 -0.26066,-0.54258 0.0402,-0.15945 0.0773,-0.2195 0.16221,-0.21804 z m -4.81149,0.0574 c -0.0896,0 -0.0977,0.22511 -0.0112,0.31154 0.0974,0.0973 0.114,0.0762 0.0989,-0.12466 -0.008,-0.10281 -0.0472,-0.18688 -0.0877,-0.18688 z m -28.608946,0.28158 c 0.06122,-0.001 0.137268,0.0406 0.169038,0.0921 0.07172,0.11604 0.03939,0.11604 -0.140184,0 -0.08424,-0.0544 -0.09574,-0.0915 -0.02885,-0.0921 z m -1.655918,0.0942 c 0.01484,0.003 0.0042,0.0399 -0.02292,0.112 -0.03394,0.0905 -3.04e-4,0.22081 0.07676,0.29788 0.08531,0.0853 0.101401,0.15889 0.04275,0.19513 -0.05182,0.032 -0.09416,0.0149 -0.09416,-0.0379 0,-0.0529 -0.07357,-0.0685 -0.16353,-0.0348 -0.139627,0.0523 -0.145906,0.0396 -0.04285,-0.0872 0.08783,-0.10811 0.09139,-0.1585 0.01311,-0.18457 -0.06817,-0.0227 -0.04605,-0.0859 0.06035,-0.17256 0.07524,-0.0613 0.115636,-0.0913 0.130496,-0.088 z m 15.158313,0.0934 c 0.03902,0.001 0.05577,0.0424 0.02182,0.13094 -0.02806,0.0731 -0.111792,0.15641 -0.186111,0.18489 -0.108419,0.0416 -0.115573,0.0152 -0.03624,-0.13302 0.06337,-0.11843 0.150348,-0.18406 0.200535,-0.18281 z m 13.585861,0.0916 c 0.0442,0 -0.0116,0.0858 -0.12411,0.19062 -0.25319,0.23587 -0.25466,0.31782 -0.0113,0.65953 0.10632,0.14929 0.15082,0.27145 0.0988,0.27145 -0.14183,0 -0.38544,-0.38801 -0.38544,-0.61383 0,-0.19341 0.26129,-0.50777 0.42211,-0.50777 z m -29.670856,0.0933 c 0.05443,0 0.07296,0.0421 0.04117,0.0935 -0.03179,0.0514 -0.07633,0.0934 -0.099,0.0934 -0.02266,0 -0.04117,-0.0419 -0.04117,-0.0934 0,-0.0514 0.04458,-0.0935 0.099,-0.0935 z m 0.248874,0.0329 c 0.02255,-0.003 0.04406,0.0139 0.06651,0.0503 0.03514,0.0569 0.0299,0.10432 -0.01165,0.10484 -0.04159,0.001 -0.01374,0.0405 0.06189,0.0883 v 1.1e-4 c 0.07562,0.0478 0.117566,0.10676 0.09327,0.13105 -0.0949,0.0949 -0.355662,-0.18793 -0.282465,-0.30637 0.02638,-0.0427 0.04994,-0.0654 0.07246,-0.0683 z m -1.181946,0.0161 c -0.07804,-0.01 -0.144827,0.0555 -0.19701,0.19271 -0.04976,0.13088 -0.09052,0.25627 -0.09052,0.27861 10e-7,0.10889 0.15721,0.0114 0.301296,-0.18687 0.140304,-0.19306 0.142932,-0.22875 0.02037,-0.27575 -0.0116,-0.004 -0.02299,-0.007 -0.03413,-0.009 z m 30.815578,0.0477 c 0.17662,-0.004 0.25565,0.28291 0.10418,0.37882 v 1.1e-4 c -0.17892,0.11324 -0.43382,0.10606 -0.50821,-0.0143 -0.0671,-0.10861 0.21128,-0.3599 0.40403,-0.36462 z m -30.140963,0.005 c 0.0073,-4.9e-4 0.01301,0.001 0.01684,0.005 0.02544,0.0254 -0.100236,0.18834 -0.279381,0.36198 -0.179151,0.17366 -0.325745,0.27333 -0.325745,0.22145 0,-0.11322 0.477882,-0.58103 0.588278,-0.58838 z m 33.177833,0.28136 c 0.002,2.8e-4 0.003,0.001 0.004,0.002 0.0129,0.0197 0.0758,0.10476 0.13986,0.18897 0.15821,0.20789 -0.0148,0.58114 -0.34326,0.74025 -0.38777,0.18787 -0.63127,0.19735 -0.7702,0.03 -0.1117,-0.13461 -0.0985,-0.17395 0.10198,-0.30526 0.12658,-0.0829 0.36926,-0.27204 0.53927,-0.42024 0.15939,-0.13894 0.30075,-0.24003 0.32839,-0.23588 z m -31.328761,0.3166 c 0.03394,-0.006 0.04338,0.0514 0.01983,0.1414 -0.05707,0.21826 -0.120587,0.24587 -0.120587,0.0524 0,-0.0741 0.03818,-0.15824 0.08479,-0.18709 0.0058,-0.004 0.01112,-0.006 0.016,-0.007 z m 14.541948,0.18292 c 0.01705,-0.001 0.04181,0.004 0.07301,0.0164 0.07979,0.0306 0.14503,0.0722 0.14503,0.0924 0,0.0757 -0.178023,0.0331 -0.232909,-0.0557 -0.02046,-0.0331 -0.01353,-0.0516 0.01484,-0.0531 z m -16.274954,0.0892 c 0.0095,-0.002 0.01815,-3e-5 0.02533,0.007 0.0288,0.0288 5e-6,0.10421 -0.06387,0.16761 -0.0923,0.0916 -0.103032,0.0809 -0.0523,-0.0523 0.02633,-0.0692 0.06237,-0.11569 0.09085,-0.12246 z m -0.857196,0.0887 c 0.0085,0.001 0.01855,0.0156 0.02974,0.0436 0.027,0.0675 0.02368,0.14816 -0.0074,0.17916 -0.03106,0.031 -0.05304,-0.0241 -0.04901,-0.12267 0.0028,-0.0681 0.01248,-0.10226 0.02665,-0.1001 z m 2.065686,0.0109 c 0.0056,0.002 0.01191,0.0108 0.01841,0.0268 0.02591,0.0643 0.02591,0.16943 0,0.23368 -0.02591,0.0643 -0.04715,0.0117 -0.04715,-0.11684 0,-0.0964 0.01185,-0.15001 0.02874,-0.14371 z m 14.163018,0.0502 c 0.0514,0 0.09339,0.0421 0.09339,0.0935 0,0.0514 -0.04201,0.0935 -0.09339,0.0935 -0.0514,0 -0.0935,-0.0421 -0.0935,-0.0935 0,-0.0514 0.04207,-0.0935 0.0935,-0.0935 z m 19.305099,5.2e-4 c 0.16494,0 0.44902,0.29331 0.35261,0.36407 -0.0423,0.0311 -0.0911,0.14056 -0.10825,0.24337 -0.0172,0.10281 -0.0591,0.21501 -0.0934,0.24931 -0.0754,0.0754 -0.66988,0.17339 -0.66988,0.11035 0,-0.18141 0.42158,-0.9671 0.5189,-0.9671 z m -33.733955,0.12928 c 0.01133,-3.7e-4 0.02381,0.003 0.03687,0.0113 0.05224,0.0323 0.07076,0.0979 0.04117,0.1457 -0.08012,0.12964 -0.136218,0.10548 -0.136218,-0.0587 0,-0.0601 0.02408,-0.0972 0.05814,-0.0983 z m -3.090268,0.0877 c 0.02487,0.002 0.0413,0.0197 0.0413,0.0519 0,0.0514 -0.04198,0.11952 -0.09338,0.15131 -0.0514,0.0317 -0.09349,0.0157 -0.09349,-0.0358 0,-0.0514 0.04209,-0.11941 0.09349,-0.15119 0.01928,-0.0119 0.03716,-0.017 0.05209,-0.0162 z m 0.820526,0.0986 c 0.02526,5.2e-4 0.02813,0.0373 0.0042,0.0997 -0.06213,0.16193 -0.129174,0.1916 -0.129174,0.0572 0,-0.0484 0.04158,-0.11367 0.09239,-0.14503 0.01324,-0.008 0.02417,-0.012 0.0326,-0.0118 z m 33.291147,0.098 c 0.0239,6e-5 0.0514,0.006 0.084,0.0158 0.44475,0.1321 0.74852,0.73017 0.49897,0.98252 -0.0709,0.0716 -0.1547,0.1986 -0.18633,0.28213 -0.077,0.20363 -0.48327,0.19345 -0.61371,-0.0154 -0.077,-0.12337 -0.0766,-0.31681 0.002,-0.73705 0.0774,-0.41606 0.11195,-0.52829 0.21551,-0.52804 z m -33.06066,0.072 c 0.0098,-2.3e-4 0.01553,0.009 0.01553,0.0282 0,0.0514 -0.0408,0.15646 -0.09063,0.23357 -0.04983,0.0771 -0.09052,0.0983 -0.09052,0.0468 0,-0.0514 0.04069,-0.15657 0.09052,-0.23367 0.03115,-0.0482 0.05878,-0.0745 0.0751,-0.0749 z m 2.031215,0.0184 c 0.0095,-0.002 0.01815,-3e-5 0.02533,0.007 0.0288,0.0288 1.15e-4,0.10421 -0.06376,0.16761 -0.0923,0.0916 -0.103026,0.0809 -0.0523,-0.0523 0.02633,-0.0692 0.06226,-0.11569 0.09074,-0.12246 z m -3.389471,0.0568 c -0.08962,0 -0.399085,0.39605 -0.399085,0.51075 0,0.0275 0.04198,0.05 0.09338,0.05 0.0514,0 0.09349,-0.0493 0.09349,-0.10946 0,-0.0602 0.06965,-0.18637 0.154723,-0.28037 0.08508,-0.094 0.110944,-0.17091 0.05748,-0.17091 z m -0.425074,0.0199 c -0.01403,-0.002 -0.03545,0.0239 -0.06751,0.0735 -0.04983,0.0771 -0.09128,0.17178 -0.09206,0.21033 -7.87e-4,0.0385 0.04066,0.0701 0.09206,0.0701 0.05141,0 0.09285,-0.0947 0.09206,-0.21034 -6.29e-4,-0.0957 -0.0065,-0.14175 -0.02456,-0.1436 z m 33.50985,0.11453 c 0.0194,0.003 0.0523,0.051 0.10253,0.14591 0.0811,0.15343 0.0929,0.27381 0.034,0.35052 -0.0494,0.0642 -0.0563,0.11685 -0.0153,0.11685 0.041,0 -0.0264,0.1073 -0.14965,0.23852 -0.18899,0.20118 -0.2026,0.25229 -0.0864,0.32575 0.0758,0.0479 0.18229,0.088 0.23665,0.0885 0.13051,0.002 0.38175,0.60664 0.4471,1.07622 0.0392,0.28183 0.009,0.42567 -0.12179,0.58421 h 1.1e-4 c -0.18846,0.22809 -0.4636,0.28135 -0.483,0.0935 -0.007,-0.0643 -0.0221,-0.22201 -0.0345,-0.35052 -0.0123,-0.12852 -0.11141,-0.5071 -0.22035,-0.84123 -0.30657,-0.94027 -0.24621,-1.79162 0.11717,-1.65217 0.10122,0.0388 0.15004,0.005 0.15109,-0.10319 4.3e-4,-0.0507 0.007,-0.0754 0.0223,-0.0729 z m -32.169875,0.0521 c 0.05443,0 0.07296,0.0421 0.04119,0.0935 -0.03177,0.0514 -0.07634,0.0935 -0.099,0.0935 -0.02267,0 -0.04119,-0.0421 -0.04119,-0.0935 0,-0.0514 0.04456,-0.0935 0.099,-0.0935 z m 1.260797,0.0267 c 0.0052,0.001 0.0095,0.003 0.01301,0.007 0.02313,0.0231 -0.01296,0.13027 -0.08028,0.23809 -0.127018,0.20339 -0.264406,0.26015 -0.264406,0.10924 0,-0.10448 0.254178,-0.36714 0.331691,-0.35383 z m -1.774961,0.19106 c 0.02487,0.002 0.0413,0.0198 0.0413,0.052 0,0.0514 -0.04209,0.11941 -0.09349,0.1512 -0.0514,0.0317 -0.09338,0.0157 -0.09338,-0.0358 0,-0.0514 0.04198,-0.11942 0.09338,-0.1512 0.01928,-0.0119 0.03728,-0.0171 0.0522,-0.0162 z m 41.204249,0.05 c -0.19123,0 -0.36592,0.0692 -0.52418,0.20769 -0.15167,0.13188 -0.22751,0.30669 -0.22751,0.52429 0,0.2242 0.0758,0.40874 0.22751,0.55381 0.15166,0.14507 0.32636,0.2176 0.52418,0.2176 0.21101,0 0.39234,-0.0757 0.54401,-0.2274 0.15166,-0.15167 0.22752,-0.33299 0.22752,-0.54401 0,-0.22419 -0.0792,-0.40232 -0.23743,-0.5342 -0.15166,-0.13188 -0.32968,-0.19778 -0.5341,-0.19778 z m -40.172397,0.41957 c 0.0062,0.001 0.01138,0.003 0.0152,0.007 0.03052,0.0305 -0.0256,0.11679 -0.12466,0.19173 -0.26868,0.20324 -0.348206,0.17002 -0.12565,-0.0525 0.09371,-0.0937 0.191654,-0.15334 0.235113,-0.14635 z m -0.749606,0.0655 c 0.03198,0.004 0.03942,0.0289 0.03942,0.0777 0,0.0454 -0.08407,0.10464 -0.186879,0.13149 -0.220721,0.0577 -0.253694,-0.0749 -0.03909,-0.15726 0.0981,-0.0377 0.154569,-0.0556 0.186548,-0.052 z m 36.583823,0.0887 c 0.0514,0 0.0935,0.0421 0.0935,0.0935 0,0.0514 -0.0422,0.0935 -0.0935,0.0935 -0.0514,0 -0.0934,-0.0421 -0.0934,-0.0935 0,-0.0514 0.0419,-0.0935 0.0934,-0.0935 z m -37.226941,0.0935 c 0.01793,0 -0.03627,0.10517 -0.120475,0.23368 -0.0842,0.12852 -0.197618,0.23357 -0.252071,0.23357 -0.05445,0 -2.57e-4,-0.10505 0.120474,-0.23357 0.120733,-0.12851 0.234144,-0.23368 0.252072,-0.23368 z m 34.022581,0.17752 0.34039,0.20086 c 0.18726,0.11049 0.34718,0.27038 0.35515,0.35526 0.0433,0.45804 0.0299,0.66834 -0.0426,0.66834 -0.0443,0 -0.0634,0.0526 -0.0417,0.11684 0.0217,0.0642 -0.0274,0.17255 -0.10903,0.24062 -0.0883,0.0736 -0.0952,0.0961 -0.0172,0.0556 0.08,-0.0415 0.10798,-0.0304 0.0716,0.0285 -0.0328,0.0531 -0.1445,0.11885 -0.24811,0.14591 -0.17123,0.0448 -0.18831,0.005 -0.18831,-0.44302 0,-0.27074 -0.0271,-0.68956 -0.0601,-0.93065 z m 2.41896,0.273 c -0.14507,0.0528 -0.29677,0.10217 -0.45503,0.14833 -0.15826,0.0528 -0.30995,0.10549 -0.45502,0.15825 v 2.63105 h -1.82 v 0.83088 h 1.82 v 6.80516 c 0,1.7936 0.74842,2.69041 2.24529,2.69041 0.41543,0 0.86057,-0.11211 1.33536,-0.33631 v -0.8507 c -0.43522,0.24398 -0.84078,0.36604 -1.21664,0.36604 -0.52753,0 -0.90335,-0.15501 -1.12756,-0.46494 -0.2176,-0.31651 -0.3264,-0.82424 -0.3264,-1.52322 v -6.68644 h 2.6706 v -0.83088 h -2.6706 z m -32.492644,2.6903 c -1.490274,0 -2.710161,0.51436 -3.659715,1.54304 -0.949554,1.02209 -1.424329,2.33762 -1.424329,3.94659 0,1.52983 0.422035,2.76951 1.266083,3.71907 0.844048,0.94295 1.955141,1.41453 3.333309,1.41453 1.041872,0 1.938683,-0.23087 2.690411,-0.69246 v -0.94948 c -0.751728,0.54072 -1.635384,0.81106 -2.650878,0.81106 -1.107809,0 -2.001305,-0.39893 -2.680499,-1.19682 -0.672601,-0.79788 -1.008837,-1.85303 -1.008837,-3.16526 0,-1.35839 0.369185,-2.46285 1.107727,-3.31349 0.738542,-0.85724 1.701364,-1.2859 2.888302,-1.2859 0.863829,0 1.658368,0.22422 2.383723,0.67263 v -1.02866 c -0.725355,-0.31652 -1.473784,-0.47485 -2.245297,-0.47485 z m 14.728059,0 c -1.345203,0 -2.439926,0.50783 -3.283975,1.52333 -0.837456,1.0089 -1.256171,2.25189 -1.256171,3.72898 0,1.70788 0.40224,3.02994 1.206724,3.9663 0.804485,0.93636 1.859627,1.40462 3.165266,1.40462 1.292446,0 2.46291,-0.37262 3.511376,-1.11775 v -0.9693 c -1.081432,0.83745 -2.18932,1.25617 -3.323509,1.25617 -1.121001,0 -2.004541,-0.39241 -2.650767,-1.17711 -0.639633,-0.7847 -0.959502,-1.87268 -0.959502,-3.26404 h 7.497497 v -0.40558 c 0,-1.52984 -0.336234,-2.73657 -1.008833,-3.62018 -0.672599,-0.88361 -1.638626,-1.32544 -2.898106,-1.32544 z m 10.108731,0 c -0.567091,0 -1.173669,0.10559 -1.819889,0.3166 -0.639633,0.21101 -1.147469,0.46488 -1.523331,0.76161 v 1.09793 c 1.055059,-0.8968 2.139837,-1.34526 3.25424,-1.34526 1.635344,0 2.452994,1.08809 2.452994,3.26415 l -3.115711,0.46483 c -2.340912,0.36927 -3.511381,1.43757 -3.511381,3.20479 0,0.82427 0.280288,1.50669 0.840792,2.04741 0.560498,0.54072 1.322082,0.81117 2.28483,0.81117 0.751728,0 1.434256,-0.20445 2.04751,-0.61328 0.61985,-0.41543 1.09131,-0.96937 1.41442,-1.66175 h 0.0396 v 2.02769 h 0.91005 v -6.58755 c 0,-1.23311 -0.28692,-2.17271 -0.86061,-2.81893 -0.5671,-0.64622 -1.37158,-0.96941 -2.413454,-0.96941 z m 20.662694,0 c -1.47049,0 -2.65743,0.47477 -3.56083,1.42433 -0.8968,0.94955 -1.34515,2.26519 -1.34515,3.94669 0,1.55621 0.42856,2.82221 1.2858,3.79814 0.86383,0.96934 2.03429,1.45407 3.51138,1.45407 1.48368,0 2.65083,-0.48805 3.50147,-1.46398 0.85723,-0.97593 1.2859,-2.25188 1.2859,-3.82787 0,-1.66832 -0.41872,-2.9739 -1.25617,-3.91685 -0.83745,-0.94296 -1.97829,-1.41453 -3.4224,-1.41453 z m -37.091932,0.0496 c -0.659413,0 -1.23967,0.21428 -1.740824,0.6429 -0.501153,0.42862 -0.867128,1.02867 -1.097922,1.80018 h -0.03965 v -2.24529 h -0.890123 v 10.12855 h 0.890123 v -4.75764 c 0,-1.51665 0.270443,-2.68712 0.811162,-3.51138 0.540718,-0.82427 1.209986,-1.23635 2.007872,-1.23635 0.408838,0 0.764862,0.1088 1.068193,0.3264 v -0.96941 c -0.296737,-0.1187 -0.632971,-0.17796 -1.008838,-0.17796 z m 28.763552,0.19779 v 10.12812 h 0.91006 v -10.12855 z m -22.482688,0.58354 c 0.91658,0 1.635378,0.32318 2.156317,0.96941 0.520934,0.64623 0.801222,1.55287 0.840787,2.72003 H 85.62151 c 0.145072,-1.18694 0.527522,-2.09691 1.14737,-2.72994 0.626446,-0.63964 1.414455,-0.9595 2.364012,-0.9595 z m 30.771538,0 c 1.20013,0 2.12657,0.38577 2.77939,1.15728 0.65941,0.77151 0.98912,1.87939 0.98912,3.32351 0,1.40454 -0.32971,2.50237 -0.98912,3.29367 -0.65941,0.79129 -1.59901,1.18701 -2.81893,1.18701 -1.20013,0 -2.14637,-0.40225 -2.83874,-1.20673 -0.69239,-0.80449 -1.03868,-1.86947 -1.03868,-3.19489 0,-1.43092 0.35282,-2.54865 1.05839,-3.35313 0.71216,-0.80448 1.66503,-1.20672 2.85857,-1.20672 z m -18.25915,4.09503 v 0.98912 c 0,1.14079 -0.32308,2.07375 -0.96931,2.79911 -0.64622,0.71876 -1.457342,1.07821 -2.433272,1.07821 -0.712163,0 -1.269315,-0.1946 -1.671555,-0.58365 -0.395651,-0.38906 -0.593564,-0.88351 -0.593564,-1.48358 0,-0.76492 0.214393,-1.31554 0.643011,-1.65184 0.428618,-0.3429 1.173732,-0.59024 2.235384,-0.7419 z" /></g></g></svg>
